{
DisplayStrings = (
" ",
A,
A,
B,
A,
A,
A,
A,
A,
B,
$
);
copyright = "Copyright \U00A9 2013 by Ben Dunkle. All rights reserved.";
date = "2013-04-16 11:18:46 +0000";
designer = "Ben Dunkle";
designerURL = bendunkle.com;
familyName = "QuickWorms";
featurePrefixes = (
{
automatic = 1;
code = "languagesystem DFLT dflt;\012languagesystem latn dflt;\012";
name = Languagesystems;
}
);
fontMaster = (
{
ascender = 750;
capHeight = 500;
descender = "-250";
id = "A6F8BADE-1492-427D-9C9D-3E9580E82F52";
xHeight = 250;
}
);
glyphs = (
{
glyphname = A;
lastChange = "2013-04-17 12:23:12 +0000";
layers = (
{
anchors = (
{
name = ogonek;
position = "{693, 10}";
},
{
name = top;
position = "{293, 500}";
}
);
layerId = "A6F8BADE-1492-427D-9C9D-3E9580E82F52";
name = Regular;
paths = (
{
closed = 1;
nodes = (
"141 -31 OFFCURVE",
"151 20 OFFCURVE",
"164 58 CURVE SMOOTH",
"181 109 OFFCURVE",
"200 160 OFFCURVE",
"217 211 CURVE",
"302 215 OFFCURVE",
"387 218 OFFCURVE",
"472 223 CURVE",
"487 190 OFFCURVE",
"503 157 OFFCURVE",
"521 124 CURVE SMOOTH",
"543 83 OFFCURVE",
"574 35 OFFCURVE",
"621 19 CURVE SMOOTH",
"646 11 OFFCURVE",
"665 33 OFFCURVE",
"667 55 CURVE SMOOTH",
"673 102 OFFCURVE",
"635 141 OFFCURVE",
"611 178 CURVE SMOOTH",
"577 230 OFFCURVE",
"551 289 OFFCURVE",
"527 347 CURVE SMOOTH",
"504 402 OFFCURVE",
"484 458 OFFCURVE",
"460 513 CURVE SMOOTH",
"448 541 OFFCURVE",
"438 568 OFFCURVE",
"422 592 CURVE",
"452 595 OFFCURVE",
"481 601 OFFCURVE",
"504 616 CURVE SMOOTH",
"536 637 OFFCURVE",
"528 680 OFFCURVE",
"494 693 CURVE SMOOTH",
"446 711 OFFCURVE",
"386 690 OFFCURVE",
"338 680 CURVE SMOOTH",
"277 669 OFFCURVE",
"209 664 OFFCURVE",
"151 642 CURVE SMOOTH",
"128 633 OFFCURVE",
"127 602 OFFCURVE",
"151 593 CURVE SMOOTH",
"178 584 OFFCURVE",
"207 581 OFFCURVE",
"236 581 CURVE",
"224 557 OFFCURVE",
"216 532 OFFCURVE",
"208 506 CURVE SMOOTH",
"187 441 OFFCURVE",
"171 373 OFFCURVE",
"149 308 CURVE SMOOTH",
"128 244 OFFCURVE",
"105 181 OFFCURVE",
"83 118 CURVE SMOOTH",
"68 77 OFFCURVE",
"33 13 OFFCURVE",
"60 -29 CURVE SMOOTH",
"68 -41 OFFCURVE",
"82 -47 OFFCURVE",
"97 -43 CURVE SMOOTH"
);
},
{
closed = 1;
nodes = (
"367 549 OFFCURVE",
"374 501 OFFCURVE",
"386 461 CURVE SMOOTH",
"401 415 OFFCURVE",
"417 368 OFFCURVE",
"433 322 CURVE",
"401 320 OFFCURVE",
"368 313 OFFCURVE",
"338 309 CURVE SMOOTH",
"305 304 OFFCURVE",
"272 299 OFFCURVE",
"240 289 CURVE",
"268 386 OFFCURVE",
"293 485 OFFCURVE",
"305 584 CURVE",
"314 585 OFFCURVE",
"322 586 OFFCURVE",
"331 587 CURVE SMOOTH",
"338 587 OFFCURVE",
"344 588 OFFCURVE",
"351 588 CURVE"
);
}
);
width = 718;
}
);
unicode = 0041;
},
{
glyphname = B;
lastChange = "2013-04-17 12:23:21 +0000";
layers = (
{
layerId = "A6F8BADE-1492-427D-9C9D-3E9580E82F52";
name = Regular;
paths = (
{
closed = 1;
nodes = (
"97 543 OFFCURVE",
"163 556 OFFCURVE",
"167 557 CURVE",
"169 526 OFFCURVE",
"169 494 OFFCURVE",
"170 465 CURVE SMOOTH",
"173 409 OFFCURVE",
"178 353 OFFCURVE",
"185 297 CURVE SMOOTH",
"191 242 OFFCURVE",
"199 188 OFFCURVE",
"207 134 CURVE SMOOTH",
"211 110 OFFCURVE",
"214 85 OFFCURVE",
"221 62 CURVE",
"193 69 OFFCURVE",
"167 81 OFFCURVE",
"139 85 CURVE SMOOTH",
"108 90 OFFCURVE",
"75 60 OFFCURVE",
"95 28 CURVE SMOOTH",
"153 -66 OFFCURVE",
"276 -64 OFFCURVE",
"373 -51 CURVE SMOOTH",
"468 -38 OFFCURVE",
"578 -17 OFFCURVE",
"632 71 CURVE SMOOTH",
"686 159 OFFCURVE",
"614 250 OFFCURVE",
"535 287 CURVE SMOOTH",
"524 292 OFFCURVE",
"513 297 OFFCURVE",
"501 301 CURVE",
"530 319 OFFCURVE",
"556 341 OFFCURVE",
"578 364 CURVE SMOOTH",
"643 432 OFFCURVE",
"674 558 OFFCURVE",
"580 618 CURVE SMOOTH",
"491 674 OFFCURVE",
"368 674 OFFCURVE",
"267 661 CURVE SMOOTH",
"219 654 OFFCURVE",
"37 638 OFFCURVE",
"51 557 CURVE SMOOTH",
"54 534 OFFCURVE",
"80 530 OFFCURVE",
"97 538 CURVE"
);
},
{
closed = 1;
nodes = (
"483 64 OFFCURVE",
"394 60 OFFCURVE",
"339 55 CURVE SMOOTH",
"336 55 OFFCURVE",
"333 55 OFFCURVE",
"331 54 CURVE",
"332 84 OFFCURVE",
"326 114 OFFCURVE",
"320 146 CURVE SMOOTH",
"315 178 OFFCURVE",
"309 211 OFFCURVE",
"303 243 CURVE",
"409 232 OFFCURVE",
"608 184 OFFCURVE",
"525 105 CURVE SMOOTH"
);
},
{
closed = 1;
nodes = (
"573 527 OFFCURVE",
"528 458 OFFCURVE",
"482 418 CURVE SMOOTH",
"427 369 OFFCURVE",
"351 369 OFFCURVE",
"288 336 CURVE SMOOTH",
"288 336 OFFCURVE",
"287 336 OFFCURVE",
"287 336 CURVE",
"276 406 OFFCURVE",
"270 494 OFFCURVE",
"242 566 CURVE",
"248 567 OFFCURVE",
"255 568 OFFCURVE",
"261 569 CURVE SMOOTH",
"337 577 OFFCURVE",
"415 573 OFFCURVE",
"489 552 CURVE SMOOTH"
);
}
);
width = 701;
}
);
unicode = 0042;
},
{
glyphname = C;
lastChange = "2013-04-17 12:23:21 +0000";
layers = (
{
anchors = (
{
name = bottom;
position = "{348, 0}";
},
{
name = top;
position = "{348, 500}";
}
);
layerId = "A6F8BADE-1492-427D-9C9D-3E9580E82F52";
name = Regular;
paths = (
{
closed = 1;
nodes = (
"385 -79 OFFCURVE",
"565 -35 OFFCURVE",
"618 77 CURVE SMOOTH",
"631 106 OFFCURVE",
"609 148 OFFCURVE",
"573 136 CURVE SMOOTH",
"533 122 OFFCURVE",
"499 99 OFFCURVE",
"460 84 CURVE SMOOTH",
"420 69 OFFCURVE",
"377 65 OFFCURVE",
"335 65 CURVE SMOOTH",
"241 64 OFFCURVE",
"192 159 OFFCURVE",
"167 237 CURVE SMOOTH",
"140 321 OFFCURVE",
"163 422 OFFCURVE",
"243 466 CURVE SMOOTH",
"283 488 OFFCURVE",
"340 483 OFFCURVE",
"384 482 CURVE SMOOTH",
"426 481 OFFCURVE",
"469 477 OFFCURVE",
"510 468 CURVE",
"509 466 OFFCURVE",
"508 464 OFFCURVE",
"507 461 CURVE SMOOTH",
"489 418 OFFCURVE",
"466 367 OFFCURVE",
"483 321 CURVE SMOOTH",
"493 294 OFFCURVE",
"531 277 OFFCURVE",
"553 303 CURVE SMOOTH",
"585 339 OFFCURVE",
"588 390 OFFCURVE",
"601 436 CURVE SMOOTH",
"614 485 OFFCURVE",
"629 533 OFFCURVE",
"632 585 CURVE SMOOTH",
"634 616 OFFCURVE",
"588 628 OFFCURVE",
"574 601 CURVE SMOOTH",
"561 576 OFFCURVE",
"548 552 OFFCURVE",
"536 527 CURVE",
"488 547 OFFCURVE",
"437 557 OFFCURVE",
"384 563 CURVE SMOOTH",
"321 571 OFFCURVE",
"254 576 OFFCURVE",
"195 547 CURVE SMOOTH",
"80 491 OFFCURVE",
"36 361 OFFCURVE",
"54 240 CURVE SMOOTH",
"71 115 OFFCURVE",
"148 -8 OFFCURVE",
"273 -45 CURVE SMOOTH"
);
}
);
width = 682;
}
);
unicode = 0043;
},
{
glyphname = D;
lastChange = "2013-04-17 12:23:21 +0000";
layers = (
{
anchors = (
{
name = center;
position = "{275, 250}";
},
{
name = top;
position = "{275, 500}";
}
);
layerId = "A6F8BADE-1492-427D-9C9D-3E9580E82F52";
name = Regular;
paths = (
{
closed = 1;
nodes = (
"349 615 OFFCURVE",
"21 608 OFFCURVE",
"52 505 CURVE SMOOTH",
"59 483 OFFCURVE",
"91 477 OFFCURVE",
"103 495 CURVE",
"118 499 OFFCURVE",
"133 501 OFFCURVE",
"149 503 CURVE",
"168 416 OFFCURVE",
"185 328 OFFCURVE",
"205 240 CURVE SMOOTH",
"217 184 OFFCURVE",
"227 128 OFFCURVE",
"239 72 CURVE SMOOTH",
"241 62 OFFCURVE",
"244 51 OFFCURVE",
"246 42 CURVE",
"213 38 OFFCURVE",
"180 36 OFFCURVE",
"147 34 CURVE SMOOTH",
"105 32 OFFCURVE",
"78 -32 OFFCURVE",
"124 -53 CURVE SMOOTH",
"247 -111 OFFCURVE",
"423 -50 OFFCURVE",
"526 29 CURVE SMOOTH",
"634 113 OFFCURVE",
"706 257 OFFCURVE",
"696 394 CURVE SMOOTH",
"684 549 OFFCURVE",
"540 607 OFFCURVE",
"404 613 CURVE SMOOTH"
);
},
{
closed = 1;
nodes = (
"584 251 OFFCURVE",
"523 159 OFFCURVE",
"447 107 CURVE SMOOTH",
"418 87 OFFCURVE",
"388 74 OFFCURVE",
"356 64 CURVE",
"353 76 OFFCURVE",
"350 89 OFFCURVE",
"347 101 CURVE SMOOTH",
"333 157 OFFCURVE",
"319 212 OFFCURVE",
"303 267 CURVE SMOOTH",
"279 350 OFFCURVE",
"258 434 OFFCURVE",
"217 509 CURVE",
"273 515 OFFCURVE",
"330 518 OFFCURVE",
"386 516 CURVE SMOOTH",
"498 512 OFFCURVE",
"600 473 OFFCURVE",
"591 345 CURVE SMOOTH"
);
}
);
width = 747;
}
);
unicode = 0044;
},
{
glyphname = E;
lastChange = "2013-04-17 12:23:21 +0000";
layers = (
{
anchors = (
{
name = bottom;
position = "{368, 0}";
},
{
name = ogonek;
position = "{768, 10}";
},
{
name = top;
position = "{368, 500}";
}
);
layerId = "A6F8BADE-1492-427D-9C9D-3E9580E82F52";
name = Regular;
paths = (
{
closed = 1;
nodes = (
"94 -34 OFFCURVE",
"144 -57 OFFCURVE",
"185 -76 CURVE SMOOTH",
"244 -103 OFFCURVE",
"306 -117 OFFCURVE",
"369 -125 CURVE SMOOTH",
"481 -139 OFFCURVE",
"627 -117 OFFCURVE",
"691 -12 CURVE SMOOTH",
"711 20 OFFCURVE",
"678 65 OFFCURVE",
"641 53 CURVE SMOOTH",
"608 42 OFFCURVE",
"577 24 OFFCURVE",
"544 13 CURVE SMOOTH",
"499 -2 OFFCURVE",
"452 -5 OFFCURVE",
"404 -5 CURVE SMOOTH",
"331 -5 OFFCURVE",
"230 16 OFFCURVE",
"171 65 CURVE",
"176 69 OFFCURVE",
"181 73 OFFCURVE",
"187 76 CURVE",
"205 87 OFFCURVE",
"223 97 OFFCURVE",
"241 107 CURVE SMOOTH",
"281 128 OFFCURVE",
"325 142 OFFCURVE",
"368 156 CURVE SMOOTH",
"416 172 OFFCURVE",
"463 188 OFFCURVE",
"510 206 CURVE SMOOTH",
"540 217 OFFCURVE",
"576 228 OFFCURVE",
"603 246 CURVE SMOOTH",
"629 265 OFFCURVE",
"614 315 OFFCURVE",
"580 302 CURVE SMOOTH",
"555 292 OFFCURVE",
"504 282 OFFCURVE",
"443 270 CURVE",
"369 302 OFFCURVE",
"272 303 OFFCURVE",
"209 354 CURVE SMOOTH",
"159 394 OFFCURVE",
"204 419 OFFCURVE",
"243 440 CURVE SMOOTH",
"278 459 OFFCURVE",
"313 475 OFFCURVE",
"349 490 CURVE",
"352 488 OFFCURVE",
"355 487 OFFCURVE",
"358 485 CURVE SMOOTH",
"420 454 OFFCURVE",
"497 421 OFFCURVE",
"565 451 CURVE SMOOTH",
"594 464 OFFCURVE",
"586 504 OFFCURVE",
"565 519 CURVE SMOOTH",
"522 548 OFFCURVE",
"459 549 OFFCURVE",
"410 565 CURVE SMOOTH",
"385 574 OFFCURVE",
"359 585 OFFCURVE",
"334 594 CURVE SMOOTH",
"324 598 OFFCURVE",
"296 607 OFFCURVE",
"282 617 CURVE",
"279 629 OFFCURVE",
"269 640 OFFCURVE",
"253 639 CURVE SMOOTH",
"251 639 OFFCURVE",
"249 639 OFFCURVE",
"248 639 CURVE SMOOTH",
"227 638 OFFCURVE",
"213 620 OFFCURVE",
"217 599 CURVE SMOOTH",
"223 577 OFFCURVE",
"238 559 OFFCURVE",
"258 543 CURVE",
"156 515 OFFCURVE",
"54 462 OFFCURVE",
"85 346 CURVE SMOOTH",
"101 285 OFFCURVE",
"156 241 OFFCURVE",
"222 215 CURVE",
"100 173 OFFCURVE",
"9 110 OFFCURVE",
"69 8 CURVE SMOOTH"
);
}
);
width = 747;
}
);
unicode = 0045;
},
{
glyphname = F;
lastChange = "2013-04-17 12:23:21 +0000";
layers = (
{
layerId = "A6F8BADE-1492-427D-9C9D-3E9580E82F52";
name = Regular;
paths = (
{
closed = 1;
nodes = (
"190 -92 OFFCURVE",
"243 -66 OFFCURVE",
"243 -28 CURVE SMOOTH",
"242 25 OFFCURVE",
"222 74 OFFCURVE",
"206 123 CURVE SMOOTH",
"197 149 OFFCURVE",
"191 174 OFFCURVE",
"185 199 CURVE",
"198 197 OFFCURVE",
"212 196 OFFCURVE",
"224 196 CURVE SMOOTH",
"265 196 OFFCURVE",
"306 198 OFFCURVE",
"347 199 CURVE SMOOTH",
"384 200 OFFCURVE",
"421 200 OFFCURVE",
"457 198 CURVE SMOOTH",
"475 198 OFFCURVE",
"493 197 OFFCURVE",
"511 196 CURVE SMOOTH",
"523 196 OFFCURVE",
"536 195 OFFCURVE",
"548 192 CURVE",
"552 191 OFFCURVE",
"555 191 OFFCURVE",
"557 190 CURVE",
"619 155 OFFCURVE",
"677 256 OFFCURVE",
"613 293 CURVE SMOOTH",
"584 309 OFFCURVE",
"543 309 OFFCURVE",
"511 309 CURVE SMOOTH",
"462 309 OFFCURVE",
"414 307 OFFCURVE",
"366 303 CURVE SMOOTH",
"320 299 OFFCURVE",
"274 293 OFFCURVE",
"229 286 CURVE SMOOTH",
"211 283 OFFCURVE",
"190 281 OFFCURVE",
"170 277 CURVE",
"169 287 OFFCURVE",
"168 297 OFFCURVE",
"166 308 CURVE SMOOTH",
"163 333 OFFCURVE",
"160 358 OFFCURVE",
"158 383 CURVE SMOOTH",
"157 402 OFFCURVE",
"145 457 OFFCURVE",
"164 470 CURVE SMOOTH",
"186 487 OFFCURVE",
"218 493 OFFCURVE",
"243 502 CURVE SMOOTH",
"256 507 OFFCURVE",
"268 512 OFFCURVE",
"280 516 CURVE",
"294 513 OFFCURVE",
"308 511 OFFCURVE",
"321 508 CURVE SMOOTH",
"417 486 OFFCURVE",
"532 452 OFFCURVE",
"631 465 CURVE SMOOTH",
"668 470 OFFCURVE",
"696 524 OFFCURVE",
"653 544 CURVE SMOOTH",
"573 582 OFFCURVE",
"476 585 OFFCURVE",
"389 595 CURVE SMOOTH",
"347 599 OFFCURVE",
"305 605 OFFCURVE",
"262 609 CURVE SMOOTH",
"222 613 OFFCURVE",
"169 610 OFFCURVE",
"132 627 CURVE SMOOTH",
"105 639 OFFCURVE",
"81 610 OFFCURVE",
"100 587 CURVE SMOOTH",
"111 574 OFFCURVE",
"124 564 OFFCURVE",
"139 556 CURVE",
"132 554 OFFCURVE",
"125 551 OFFCURVE",
"119 548 CURVE SMOOTH",
"53 516 OFFCURVE",
"51 448 OFFCURVE",
"50 383 CURVE SMOOTH",
"49 304 OFFCURVE",
"56 221 OFFCURVE",
"75 144 CURVE SMOOTH",
"92 73 OFFCURVE",
"115 -5 OFFCURVE",
"163 -60 CURVE SMOOTH"
);
}
);
width = 725;
}
);
unicode = 0046;
},
{
glyphname = G;
lastChange = "2013-04-17 12:23:21 +0000";
layers = (
{
anchors = (
{
name = bottom;
position = "{355, 0}";
},
{
name = top;
position = "{355, 500}";
}
);
layerId = "A6F8BADE-1492-427D-9C9D-3E9580E82F52";
name = Regular;
paths = (
{
closed = 1;
nodes = (
"63 356 OFFCURVE",
"57 333 OFFCURVE",
"55 309 CURVE SMOOTH",
"51 265 OFFCURVE",
"60 217 OFFCURVE",
"73 175 CURVE SMOOTH",
"98 95 OFFCURVE",
"146 20 OFFCURVE",
"211 -33 CURVE SMOOTH",
"345 -140 OFFCURVE",
"533 -123 OFFCURVE",
"634 16 CURVE SMOOTH",
"716 128 OFFCURVE",
"708 355 OFFCURVE",
"531 360 CURVE SMOOTH",
"445 363 OFFCURVE",
"368 325 OFFCURVE",
"301 275 CURVE SMOOTH",
"262 245 OFFCURVE",
"225 211 OFFCURVE",
"199 171 CURVE",
"179 207 OFFCURVE",
"166 247 OFFCURVE",
"157 288 CURVE SMOOTH",
"149 323 OFFCURVE",
"150 365 OFFCURVE",
"140 402 CURVE",
"175 449 OFFCURVE",
"221 464 OFFCURVE",
"280 474 CURVE SMOOTH",
"348 486 OFFCURVE",
"429 496 OFFCURVE",
"502 491 CURVE",
"494 463 OFFCURVE",
"491 434 OFFCURVE",
"506 408 CURVE SMOOTH",
"533 359 OFFCURVE",
"605 383 OFFCURVE",
"607 435 CURVE SMOOTH",
"608 461 OFFCURVE",
"612 487 OFFCURVE",
"617 514 CURVE SMOOTH",
"620 529 OFFCURVE",
"622 544 OFFCURVE",
"623 560 CURVE SMOOTH",
"624 568 OFFCURVE",
"621 585 OFFCURVE",
"625 593 CURVE SMOOTH",
"639 625 OFFCURVE",
"611 654 OFFCURVE",
"578 640 CURVE SMOOTH",
"540 623 OFFCURVE",
"534 575 OFFCURVE",
"520 540 CURVE SMOOTH",
"519 537 OFFCURVE",
"518 534 OFFCURVE",
"517 530 CURVE",
"429 559 OFFCURVE",
"341 569 OFFCURVE",
"245 561 CURVE SMOOTH",
"161 553 OFFCURVE",
"51 516 OFFCURVE",
"50 414 CURVE SMOOTH",
"50 398 OFFCURVE",
"57 386 OFFCURVE",
"68 379 CURVE"
);
},
{
closed = 1;
nodes = (
"564 245 OFFCURVE",
"570 201 OFFCURVE",
"564 163 CURVE SMOOTH",
"558 115 OFFCURVE",
"531 69 OFFCURVE",
"492 42 CURVE SMOOTH",
"424 -5 OFFCURVE",
"345 21 OFFCURVE",
"285 68 CURVE",
"338 149 OFFCURVE",
"414 233 OFFCURVE",
"516 241 CURVE SMOOTH"
);
}
);
width = 734;
}
);
unicode = 0047;
},
{
glyphname = H;
lastChange = "2013-04-17 12:23:21 +0000";
layers = (
{
anchors = (
{
name = center;
position = "{339, 250}";
},
{
name = top;
position = "{339, 500}";
}
);
layerId = "A6F8BADE-1492-427D-9C9D-3E9580E82F52";
name = Regular;
paths = (
{
closed = 1;
nodes = (
"70 348 OFFCURVE",
"78 293 OFFCURVE",
"82 237 CURVE SMOOTH",
"90 138 OFFCURVE",
"70 7 OFFCURVE",
"123 -81 CURVE SMOOTH",
"142 -113 OFFCURVE",
"190 -106 OFFCURVE",
"200 -71 CURVE SMOOTH",
"216 -19 OFFCURVE",
"205 37 OFFCURVE",
"201 91 CURVE SMOOTH",
"201 92 OFFCURVE",
"201 93 OFFCURVE",
"201 94 CURVE",
"256 89 OFFCURVE",
"320 102 OFFCURVE",
"369 107 CURVE SMOOTH",
"413 110 OFFCURVE",
"457 113 OFFCURVE",
"502 114 CURVE SMOOTH",
"503 114 OFFCURVE",
"504 114 OFFCURVE",
"505 114 CURVE",
"509 99 OFFCURVE",
"512 84 OFFCURVE",
"514 69 CURVE SMOOTH",
"524 14 OFFCURVE",
"531 -49 OFFCURVE",
"573 -89 CURVE SMOOTH",
"597 -112 OFFCURVE",
"638 -102 OFFCURVE",
"647 -69 CURVE SMOOTH",
"661 -20 OFFCURVE",
"644 34 OFFCURVE",
"634 83 CURVE SMOOTH",
"622 144 OFFCURVE",
"606 205 OFFCURVE",
"591 265 CURVE SMOOTH",
"566 370 OFFCURVE",
"570 495 OFFCURVE",
"510 587 CURVE SMOOTH",
"496 608 OFFCURVE",
"468 598 OFFCURVE",
"465 575 CURVE SMOOTH",
"455 464 OFFCURVE",
"463 345 OFFCURVE",
"481 235 CURVE SMOOTH",
"481 233 OFFCURVE",
"482 231 OFFCURVE",
"482 229 CURVE",
"442 226 OFFCURVE",
"399 217 OFFCURVE",
"369 213 CURVE SMOOTH",
"318 206 OFFCURVE",
"248 203 OFFCURVE",
"192 184 CURVE",
"189 212 OFFCURVE",
"185 241 OFFCURVE",
"181 269 CURVE SMOOTH",
"167 371 OFFCURVE",
"132 464 OFFCURVE",
"91 559 CURVE SMOOTH",
"80 583 OFFCURVE",
"46 565 OFFCURVE",
"50 542 CURVE SMOOTH",
"59 498 OFFCURVE",
"58 448 OFFCURVE",
"64 403 CURVE SMOOTH"
);
}
);
width = 702;
}
);
unicode = 0048;
},
{
glyphname = I;
lastChange = "2013-04-17 12:23:21 +0000";
layers = (
{
anchors = (
{
name = ogonek;
position = "{647, 10}";
},
{
name = top;
position = "{247, 500}";
}
);
layerId = "A6F8BADE-1492-427D-9C9D-3E9580E82F52";
name = Regular;
paths = (
{
closed = 1;
nodes = (
"117 504 OFFCURVE",
"163 500 OFFCURVE",
"209 498 CURVE",
"207 485 OFFCURVE",
"207 471 OFFCURVE",
"207 458 CURVE SMOOTH",
"205 403 OFFCURVE",
"210 348 OFFCURVE",
"206 293 CURVE SMOOTH",
"202 235 OFFCURVE",
"191 178 OFFCURVE",
"184 121 CURVE SMOOTH",
"180 89 OFFCURVE",
"173 54 OFFCURVE",
"176 21 CURVE",
"147 22 OFFCURVE",
"116 24 OFFCURVE",
"89 14 CURVE SMOOTH",
"64 5 OFFCURVE",
"49 -29 OFFCURVE",
"72 -49 CURVE SMOOTH",
"122 -92 OFFCURVE",
"207 -87 OFFCURVE",
"268 -96 CURVE SMOOTH",
"337 -105 OFFCURVE",
"452 -142 OFFCURVE",
"507 -86 CURVE SMOOTH",
"524 -69 OFFCURVE",
"521 -46 OFFCURVE",
"507 -29 CURVE SMOOTH",
"466 20 OFFCURVE",
"363 12 OFFCURVE",
"303 17 CURVE SMOOTH",
"301 17 OFFCURVE",
"298 17 OFFCURVE",
"296 18 CURVE",
"301 45 OFFCURVE",
"301 75 OFFCURVE",
"303 102 CURVE SMOOTH",
"307 153 OFFCURVE",
"315 203 OFFCURVE",
"318 254 CURVE SMOOTH",
"321 304 OFFCURVE",
"316 354 OFFCURVE",
"308 403 CURVE SMOOTH",
"304 426 OFFCURVE",
"299 448 OFFCURVE",
"292 470 CURVE SMOOTH",
"291 475 OFFCURVE",
"286 487 OFFCURVE",
"282 497 CURVE",
"314 498 OFFCURVE",
"347 499 OFFCURVE",
"379 499 CURVE SMOOTH",
"415 499 OFFCURVE",
"440 497 OFFCURVE",
"469 520 CURVE SMOOTH",
"482 530 OFFCURVE",
"484 554 OFFCURVE",
"475 567 CURVE SMOOTH",
"437 626 OFFCURVE",
"345 598 OFFCURVE",
"286 592 CURVE SMOOTH",
"247 588 OFFCURVE",
"208 582 OFFCURVE",
"170 576 CURVE SMOOTH",
"134 571 OFFCURVE",
"101 554 OFFCURVE",
"66 549 CURVE SMOOTH",
"40 545 OFFCURVE",
"48 506 OFFCURVE",
"72 506 CURVE SMOOTH"
);
}
);
width = 569;
}
);
unicode = 0049;
},
{
glyphname = J;
lastChange = "2013-04-17 12:23:21 +0000";
layers = (
{
anchors = (
{
name = top;
position = "{395, 500}";
}
);
layerId = "A6F8BADE-1492-427D-9C9D-3E9580E82F52";
name = Regular;
paths = (
{
closed = 1;
nodes = (
"291 -179 OFFCURVE",
"394 -160 OFFCURVE",
"461 -86 CURVE SMOOTH",
"532 -9 OFFCURVE",
"528 106 OFFCURVE",
"526 204 CURVE SMOOTH",
"525 298 OFFCURVE",
"520 393 OFFCURVE",
"500 485 CURVE",
"548 489 OFFCURVE",
"598 497 OFFCURVE",
"626 527 CURVE SMOOTH",
"644 547 OFFCURVE",
"639 574 OFFCURVE",
"618 589 CURVE SMOOTH",
"584 613 OFFCURVE",
"549 604 OFFCURVE",
"511 597 CURVE SMOOTH",
"471 590 OFFCURVE",
"432 581 OFFCURVE",
"392 572 CURVE SMOOTH",
"318 554 OFFCURVE",
"235 536 OFFCURVE",
"172 490 CURVE SMOOTH",
"155 477 OFFCURVE",
"165 448 OFFCURVE",
"188 453 CURVE SMOOTH",
"259 470 OFFCURVE",
"338 467 OFFCURVE",
"411 477 CURVE",
"404 434 OFFCURVE",
"412 381 OFFCURVE",
"412 349 CURVE SMOOTH",
"413 265 OFFCURVE",
"413 179 OFFCURVE",
"407 95 CURVE SMOOTH",
"401 22 OFFCURVE",
"360 -47 OFFCURVE",
"279 -28 CURVE SMOOTH",
"206 -10 OFFCURVE",
"176 61 OFFCURVE",
"122 102 CURVE SMOOTH",
"95 124 OFFCURVE",
"50 113 OFFCURVE",
"50 73 CURVE SMOOTH",
"50 -24 OFFCURVE",
"121 -90 OFFCURVE",
"202 -132 CURVE SMOOTH"
);
}
);
width = 687;
}
);
unicode = 004A;
},
{
glyphname = K;
lastChange = "2013-04-17 12:23:21 +0000";
layers = (
{
anchors = (
{
name = bottom;
position = "{368, 0}";
},
{
name = top;
position = "{368, 500}";
}
);
layerId = "A6F8BADE-1492-427D-9C9D-3E9580E82F52";
name = Regular;
paths = (
{
closed = 1;
nodes = (
"219 -65 OFFCURVE",
"236 -73 OFFCURVE",
"250 -73 CURVE SMOOTH",
"346 -73 OFFCURVE",
"257 128 OFFCURVE",
"237 183 CURVE",
"255 182 OFFCURVE",
"273 186 OFFCURVE",
"290 194 CURVE",
"358 198 OFFCURVE",
"428 202 OFFCURVE",
"477 152 CURVE SMOOTH",
"538 92 OFFCURVE",
"551 -71 OFFCURVE",
"658 -70 CURVE SMOOTH",
"678 -70 OFFCURVE",
"696 -57 OFFCURVE",
"702 -37 CURVE SMOOTH",
"719 22 OFFCURVE",
"663 81 OFFCURVE",
"635 129 CURVE SMOOTH",
"604 182 OFFCURVE",
"576 230 OFFCURVE",
"525 265 CURVE SMOOTH",
"493 286 OFFCURVE",
"459 297 OFFCURVE",
"423 299 CURVE",
"424 300 OFFCURVE",
"426 302 OFFCURVE",
"427 303 CURVE SMOOTH",
"497 367 OFFCURVE",
"571 447 OFFCURVE",
"602 539 CURVE SMOOTH",
"614 575 OFFCURVE",
"562 593 OFFCURVE",
"543 564 CURVE SMOOTH",
"499 498 OFFCURVE",
"424 443 OFFCURVE",
"364 392 CURVE SMOOTH",
"331 363 OFFCURVE",
"296 338 OFFCURVE",
"261 313 CURVE SMOOTH",
"243 300 OFFCURVE",
"224 289 OFFCURVE",
"209 275 CURVE",
"181 362 OFFCURVE",
"150 449 OFFCURVE",
"110 531 CURVE SMOOTH",
"95 563 OFFCURVE",
"39 540 OFFCURVE",
"52 507 CURVE SMOOTH",
"123 327 OFFCURVE",
"128 122 OFFCURVE",
"212 -52 CURVE SMOOTH"
);
}
);
width = 755;
}
);
unicode = 004B;
},
{
glyphname = L;
lastChange = "2013-04-17 12:23:21 +0000";
layers = (
{
anchors = (
{
name = bottom;
position = "{254, 0}";
},
{
name = top;
position = "{254, 500}";
}
);
layerId = "A6F8BADE-1492-427D-9C9D-3E9580E82F52";
name = Regular;
paths = (
{
closed = 1;
nodes = (
"195 614 OFFCURVE",
"128 614 OFFCURVE",
"125 568 CURVE SMOOTH",
"120 483 OFFCURVE",
"90 400 OFFCURVE",
"71 317 CURVE SMOOTH",
"53 236 OFFCURVE",
"34 138 OFFCURVE",
"74 60 CURVE SMOOTH",
"128 -46 OFFCURVE",
"317 -153 OFFCURVE",
"428 -80 CURVE",
"440 -87 OFFCURVE",
"453 -92 OFFCURVE",
"469 -93 CURVE SMOOTH",
"496 -96 OFFCURVE",
"517 -70 OFFCURVE",
"518 -45 CURVE SMOOTH",
"519 -17 OFFCURVE",
"507 0 OFFCURVE",
"494 25 CURVE SMOOTH",
"478 54 OFFCURVE",
"468 88 OFFCURVE",
"455 119 CURVE SMOOTH",
"430 182 OFFCURVE",
"409 247 OFFCURVE",
"383 309 CURVE SMOOTH",
"369 344 OFFCURVE",
"311 343 OFFCURVE",
"314 300 CURVE SMOOTH",
"318 222 OFFCURVE",
"329 147 OFFCURVE",
"349 72 CURVE SMOOTH",
"353 59 OFFCURVE",
"357 45 OFFCURVE",
"361 30 CURVE",
"329 32 OFFCURVE",
"298 35 OFFCURVE",
"265 50 CURVE SMOOTH",
"211 74 OFFCURVE",
"174 115 OFFCURVE",
"169 176 CURVE SMOOTH",
"157 306 OFFCURVE",
"206 436 OFFCURVE",
"198 568 CURVE SMOOTH"
);
}
);
width = 568;
}
);
unicode = 004C;
},
{
glyphname = M;
lastChange = "2013-04-17 12:23:21 +0000";
layers = (
{
layerId = "A6F8BADE-1492-427D-9C9D-3E9580E82F52";
name = Regular;
paths = (
{
closed = 1;
nodes = (
"686 312 OFFCURVE",
"677 371 OFFCURVE",
"664 431 CURVE SMOOTH",
"655 472 OFFCURVE",
"652 545 OFFCURVE",
"618 574 CURVE SMOOTH",
"592 596 OFFCURVE",
"548 597 OFFCURVE",
"531 563 CURVE SMOOTH",
"498 498 OFFCURVE",
"460 437 OFFCURVE",
"426 373 CURVE SMOOTH",
"408 340 OFFCURVE",
"387 305 OFFCURVE",
"370 269 CURVE",
"349 294 OFFCURVE",
"330 321 OFFCURVE",
"309 347 CURVE SMOOTH",
"283 381 OFFCURVE",
"251 412 OFFCURVE",
"219 442 CURVE SMOOTH",
"208 453 OFFCURVE",
"197 466 OFFCURVE",
"184 476 CURVE SMOOTH",
"179 479 OFFCURVE",
"152 491 OFFCURVE",
"149 497 CURVE SMOOTH",
"142 509 OFFCURVE",
"125 512 OFFCURVE",
"114 504 CURVE",
"112 508 OFFCURVE",
"110 512 OFFCURVE",
"107 515 CURVE SMOOTH",
"89 542 OFFCURVE",
"40 526 OFFCURVE",
"52 492 CURVE SMOOTH",
"81 402 OFFCURVE",
"71 304 OFFCURVE",
"71 211 CURVE SMOOTH",
"70 121 OFFCURVE",
"63 -31 OFFCURVE",
"145 -88 CURVE SMOOTH",
"169 -105 OFFCURVE",
"197 -87 OFFCURVE",
"206 -64 CURVE SMOOTH",
"223 -20 OFFCURVE",
"205 31 OFFCURVE",
"199 76 CURVE SMOOTH",
"190 132 OFFCURVE",
"186 189 OFFCURVE",
"180 246 CURVE SMOOTH",
"175 285 OFFCURVE",
"172 325 OFFCURVE",
"165 363 CURVE",
"183 341 OFFCURVE",
"202 319 OFFCURVE",
"218 298 CURVE SMOOTH",
"245 261 OFFCURVE",
"269 222 OFFCURVE",
"297 185 CURVE SMOOTH",
"317 159 OFFCURVE",
"340 122 OFFCURVE",
"370 108 CURVE SMOOTH",
"408 90 OFFCURVE",
"456 111 OFFCURVE",
"456 158 CURVE SMOOTH",
"456 216 OFFCURVE",
"506 281 OFFCURVE",
"533 331 CURVE SMOOTH",
"539 343 OFFCURVE",
"546 355 OFFCURVE",
"552 367 CURVE",
"563 312 OFFCURVE",
"572 258 OFFCURVE",
"588 204 CURVE SMOOTH",
"603 153 OFFCURVE",
"620 103 OFFCURVE",
"636 53 CURVE SMOOTH",
"653 -2 OFFCURVE",
"662 -60 OFFCURVE",
"696 -108 CURVE SMOOTH",
"718 -137 OFFCURVE",
"756 -131 OFFCURVE",
"769 -98 CURVE SMOOTH",
"793 -42 OFFCURVE",
"778 13 OFFCURVE",
"763 70 CURVE SMOOTH",
"746 132 OFFCURVE",
"724 193 OFFCURVE",
"705 254 CURVE SMOOTH"
);
}
);
width = 832;
}
);
unicode = 004D;
},
{
glyphname = N;
lastChange = "2013-04-17 12:23:21 +0000";
layers = (
{
anchors = (
{
name = bottom;
position = "{393, 0}";
},
{
name = top;
position = "{393, 500}";
}
);
layerId = "A6F8BADE-1492-427D-9C9D-3E9580E82F52";
name = Regular;
paths = (
{
closed = 1;
nodes = (
"149 165 OFFCURVE",
"152 116 OFFCURVE",
"154 68 CURVE SMOOTH",
"156 18 OFFCURVE",
"142 -43 OFFCURVE",
"173 -85 CURVE SMOOTH",
"188 -105 OFFCURVE",
"217 -114 OFFCURVE",
"237 -93 CURVE SMOOTH",
"280 -47 OFFCURVE",
"270 26 OFFCURVE",
"266 85 CURVE SMOOTH",
"263 131 OFFCURVE",
"258 175 OFFCURVE",
"249 218 CURVE",
"258 209 OFFCURVE",
"266 199 OFFCURVE",
"275 189 CURVE SMOOTH",
"319 140 OFFCURVE",
"364 92 OFFCURVE",
"411 46 CURVE SMOOTH",
"454 5 OFFCURVE",
"509 -60 OFFCURVE",
"568 -74 CURVE",
"568 -74 OFFCURVE",
"568 -74 OFFCURVE",
"568 -74 CURVE",
"571 -81 OFFCURVE",
"575 -88 OFFCURVE",
"579 -94 CURVE SMOOTH",
"600 -128 OFFCURVE",
"658 -125 OFFCURVE",
"667 -83 CURVE SMOOTH",
"679 -29 OFFCURVE",
"666 25 OFFCURVE",
"658 78 CURVE SMOOTH",
"649 138 OFFCURVE",
"636 197 OFFCURVE",
"625 257 CURVE SMOOTH",
"613 319 OFFCURVE",
"602 381 OFFCURVE",
"595 443 CURVE SMOOTH",
"589 489 OFFCURVE",
"592 536 OFFCURVE",
"581 581 CURVE SMOOTH",
"577 598 OFFCURVE",
"553 605 OFFCURVE",
"541 592 CURVE SMOOTH",
"474 516 OFFCURVE",
"502 370 OFFCURVE",
"511 277 CURVE SMOOTH",
"517 219 OFFCURVE",
"524 160 OFFCURVE",
"533 102 CURVE SMOOTH",
"533 100 OFFCURVE",
"533 98 OFFCURVE",
"533 96 CURVE",
"516 112 OFFCURVE",
"500 128 OFFCURVE",
"484 143 CURVE SMOOTH",
"431 193 OFFCURVE",
"380 243 OFFCURVE",
"331 295 CURVE SMOOTH",
"283 345 OFFCURVE",
"240 402 OFFCURVE",
"191 450 CURVE SMOOTH",
"182 459 OFFCURVE",
"171 471 OFFCURVE",
"159 482 CURVE",
"139 511 OFFCURVE",
"113 530 OFFCURVE",
"81 529 CURVE SMOOTH",
"49 528 OFFCURVE",
"39 487 OFFCURVE",
"65 471 CURVE SMOOTH",
"88 456 OFFCURVE",
"99 388 OFFCURVE",
"105 363 CURVE SMOOTH",
"118 313 OFFCURVE",
"128 263 OFFCURVE",
"139 213 CURVE SMOOTH"
);
}
);
width = 722;
}
);
unicode = 004E;
},
{
glyphname = O;
lastChange = "2013-04-17 12:23:21 +0000";
layers = (
{
anchors = (
{
name = top;
position = "{413, 500}";
}
);
layerId = "A6F8BADE-1492-427D-9C9D-3E9580E82F52";
name = Regular;
paths = (
{
closed = 1;
nodes = (
"661 -47 OFFCURVE",
"853 121 OFFCURVE",
"784 336 CURVE SMOOTH",
"757 419 OFFCURVE",
"669 494 OFFCURVE",
"591 525 CURVE SMOOTH",
"532 548 OFFCURVE",
"471 559 OFFCURVE",
"412 555 CURVE",
"409 557 OFFCURVE",
"407 558 OFFCURVE",
"403 559 CURVE SMOOTH",
"221 596 OFFCURVE",
"50 467 OFFCURVE",
"50 277 CURVE SMOOTH",
"50 56 OFFCURVE",
"262 -52 OFFCURVE",
"459 -49 CURVE SMOOTH"
);
},
{
closed = 1;
nodes = (
"266 455 OFFCURVE",
"282 440 OFFCURVE",
"303 440 CURVE SMOOTH",
"435 439 OFFCURVE",
"568 454 OFFCURVE",
"654 331 CURVE SMOOTH",
"694 273 OFFCURVE",
"684 198 OFFCURVE",
"640 146 CURVE SMOOTH",
"597 95 OFFCURVE",
"523 76 OFFCURVE",
"459 72 CURVE SMOOTH",
"392 68 OFFCURVE",
"322 86 OFFCURVE",
"263 117 CURVE SMOOTH",
"205 148 OFFCURVE",
"178 198 OFFCURVE",
"164 260 CURVE SMOOTH",
"147 343 OFFCURVE",
"193 425 OFFCURVE",
"261 474 CURVE"
);
}
);
width = 848;
}
);
unicode = 004F;
},
{
glyphname = P;
lastChange = "2013-04-17 12:23:21 +0000";
layers = (
{
layerId = "A6F8BADE-1492-427D-9C9D-3E9580E82F52";
name = Regular;
paths = (
{
closed = 1;
nodes = (
"421 561 OFFCURVE",
"352 563 OFFCURVE",
"283 569 CURVE SMOOTH",
"243 572 OFFCURVE",
"131 569 OFFCURVE",
"107 608 CURVE SMOOTH",
"93 629 OFFCURVE",
"59 626 OFFCURVE",
"52 600 CURVE SMOOTH",
"43 565 OFFCURVE",
"65 539 OFFCURVE",
"96 521 CURVE",
"97 517 OFFCURVE",
"98 513 OFFCURVE",
"99 510 CURVE SMOOTH",
"111 482 OFFCURVE",
"111 438 OFFCURVE",
"118 407 CURVE SMOOTH",
"130 360 OFFCURVE",
"145 314 OFFCURVE",
"158 267 CURVE SMOOTH",
"180 184 OFFCURVE",
"195 72 OFFCURVE",
"255 7 CURVE SMOOTH",
"278 -17 OFFCURVE",
"318 -4 OFFCURVE",
"327 26 CURVE SMOOTH",
"342 77 OFFCURVE",
"324 124 OFFCURVE",
"309 173 CURVE SMOOTH",
"307 181 OFFCURVE",
"304 188 OFFCURVE",
"302 196 CURVE",
"303 195 OFFCURVE",
"304 195 OFFCURVE",
"306 194 CURVE SMOOTH",
"411 168 OFFCURVE",
"509 159 OFFCURVE",
"612 199 CURVE SMOOTH",
"703 235 OFFCURVE",
"803 316 OFFCURVE",
"764 424 CURVE SMOOTH",
"726 530 OFFCURVE",
"583 544 OFFCURVE",
"490 554 CURVE SMOOTH"
);
},
{
closed = 1;
nodes = (
"488 270 OFFCURVE",
"391 265 OFFCURVE",
"306 251 CURVE SMOOTH",
"297 249 OFFCURVE",
"292 245 OFFCURVE",
"288 239 CURVE",
"278 270 OFFCURVE",
"268 301 OFFCURVE",
"257 333 CURVE SMOOTH",
"241 382 OFFCURVE",
"222 431 OFFCURVE",
"200 478 CURVE SMOOTH",
"199 481 OFFCURVE",
"198 483 OFFCURVE",
"197 486 CURVE",
"205 484 OFFCURVE",
"212 483 OFFCURVE",
"218 482 CURVE SMOOTH",
"326 462 OFFCURVE",
"435 458 OFFCURVE",
"542 439 CURVE SMOOTH",
"578 433 OFFCURVE",
"649 423 OFFCURVE",
"663 383 CURVE SMOOTH",
"676 346 OFFCURVE",
"593 310 OFFCURVE",
"569 301 CURVE SMOOTH"
);
}
);
width = 823;
}
);
unicode = 0050;
},
{
glyphname = Q;
lastChange = "2013-04-17 12:23:21 +0000";
layers = (
{
layerId = "A6F8BADE-1492-427D-9C9D-3E9580E82F52";
name = Regular;
paths = (
{
closed = 1;
nodes = (
"490 -8 OFFCURVE",
"507 0 OFFCURVE",
"523 9 CURVE",
"580 -42 OFFCURVE",
"646 -75 OFFCURVE",
"725 -60 CURVE SMOOTH",
"764 -53 OFFCURVE",
"767 3 OFFCURVE",
"736 21 CURVE SMOOTH",
"704 39 OFFCURVE",
"670 54 OFFCURVE",
"638 73 CURVE SMOOTH",
"633 76 OFFCURVE",
"627 79 OFFCURVE",
"622 83 CURVE",
"695 159 OFFCURVE",
"735 260 OFFCURVE",
"649 341 CURVE SMOOTH",
"626 362 OFFCURVE",
"587 347 OFFCURVE",
"587 315 CURVE SMOOTH",
"587 264 OFFCURVE",
"584 225 OFFCURVE",
"552 182 CURVE SMOOTH",
"547 175 OFFCURVE",
"541 169 OFFCURVE",
"535 163 CURVE",
"480 220 OFFCURVE",
"440 290 OFFCURVE",
"368 329 CURVE SMOOTH",
"341 345 OFFCURVE",
"300 312 OFFCURVE",
"322 283 CURVE SMOOTH",
"349 246 OFFCURVE",
"370 204 OFFCURVE",
"393 165 CURVE SMOOTH",
"407 143 OFFCURVE",
"422 122 OFFCURVE",
"438 102 CURVE",
"434 101 OFFCURVE",
"431 99 OFFCURVE",
"427 98 CURVE SMOOTH",
"336 69 OFFCURVE",
"206 86 OFFCURVE",
"172 190 CURVE SMOOTH",
"141 284 OFFCURVE",
"211 390 OFFCURVE",
"285 442 CURVE SMOOTH",
"378 508 OFFCURVE",
"512 514 OFFCURVE",
"615 471 CURVE SMOOTH",
"631 465 OFFCURVE",
"637 488 OFFCURVE",
"626 497 CURVE SMOOTH",
"507 587 OFFCURVE",
"323 585 OFFCURVE",
"201 499 CURVE SMOOTH",
"87 419 OFFCURVE",
"8 251 OFFCURVE",
"74 117 CURVE SMOOTH",
"147 -31 OFFCURVE",
"330 -61 OFFCURVE",
"474 -13 CURVE SMOOTH"
);
}
);
width = 807;
}
);
unicode = 0051;
},
{
glyphname = R;
lastChange = "2013-04-17 12:23:21 +0000";
layers = (
{
anchors = (
{
name = bottom;
position = "{328, 0}";
},
{
name = top;
position = "{328, 500}";
}
);
layerId = "A6F8BADE-1492-427D-9C9D-3E9580E82F52";
name = Regular;
paths = (
{
closed = 1;
nodes = (
"546 262 OFFCURVE",
"619 331 OFFCURVE",
"652 396 CURVE SMOOTH",
"705 501 OFFCURVE",
"648 622 OFFCURVE",
"539 659 CURVE SMOOTH",
"425 698 OFFCURVE",
"292 683 OFFCURVE",
"184 634 CURVE SMOOTH",
"163 624 OFFCURVE",
"105 596 OFFCURVE",
"81 564 CURVE",
"55 570 OFFCURVE",
"40 533 OFFCURVE",
"57 515 CURVE SMOOTH",
"76 493 OFFCURVE",
"85 422 OFFCURVE",
"88 389 CURVE SMOOTH",
"92 335 OFFCURVE",
"95 281 OFFCURVE",
"96 226 CURVE SMOOTH",
"98 148 OFFCURVE",
"64 -20 OFFCURVE",
"153 -62 CURVE SMOOTH",
"171 -71 OFFCURVE",
"197 -68 OFFCURVE",
"207 -48 CURVE SMOOTH",
"232 0 OFFCURVE",
"217 63 OFFCURVE",
"215 115 CURVE SMOOTH",
"214 172 OFFCURVE",
"213 229 OFFCURVE",
"207 285 CURVE",
"284 253 OFFCURVE",
"347 198 OFFCURVE",
"407 137 CURVE SMOOTH",
"477 66 OFFCURVE",
"568 -37 OFFCURVE",
"670 -57 CURVE SMOOTH",
"715 -66 OFFCURVE",
"756 -11 OFFCURVE",
"717 25 CURVE SMOOTH",
"638 98 OFFCURVE",
"551 165 OFFCURVE",
"469 236 CURVE"
);
},
{
closed = 1;
nodes = (
"191 553 OFFCURVE",
"218 561 OFFCURVE",
"247 567 CURVE SMOOTH",
"325 583 OFFCURVE",
"406 589 OFFCURVE",
"484 570 CURVE SMOOTH",
"566 550 OFFCURVE",
"587 474 OFFCURVE",
"532 411 CURVE SMOOTH",
"489 363 OFFCURVE",
"425 346 OFFCURVE",
"373 311 CURVE",
"319 345 OFFCURVE",
"257 370 OFFCURVE",
"196 371 CURVE",
"190 403 OFFCURVE",
"182 435 OFFCURVE",
"168 463 CURVE SMOOTH",
"156 484 OFFCURVE",
"143 511 OFFCURVE",
"126 532 CURVE",
"136 526 OFFCURVE",
"149 537 OFFCURVE",
"164 543 CURVE SMOOTH"
);
}
);
width = 783;
}
);
unicode = 0052;
},
{
glyphname = S;
lastChange = "2013-04-17 12:23:21 +0000";
layers = (
{
anchors = (
{
name = bottom;
position = "{338, 0}";
},
{
name = top;
position = "{338, 500}";
}
);
layerId = "A6F8BADE-1492-427D-9C9D-3E9580E82F52";
name = Regular;
paths = (
{
closed = 1;
nodes = (
"209 210 OFFCURVE",
"272 199 OFFCURVE",
"332 189 CURVE SMOOTH",
"369 183 OFFCURVE",
"406 179 OFFCURVE",
"443 172 CURVE SMOOTH",
"459 170 OFFCURVE",
"475 167 OFFCURVE",
"490 164 CURVE",
"477 158 OFFCURVE",
"463 152 OFFCURVE",
"453 147 CURVE SMOOTH",
"421 131 OFFCURVE",
"387 118 OFFCURVE",
"354 103 CURVE SMOOTH",
"291 74 OFFCURVE",
"223 56 OFFCURVE",
"164 20 CURVE SMOOTH",
"135 1 OFFCURVE",
"143 -37 OFFCURVE",
"173 -48 CURVE SMOOTH",
"232 -71 OFFCURVE",
"282 -57 OFFCURVE",
"340 -35 CURVE SMOOTH",
"405 -11 OFFCURVE",
"468 21 OFFCURVE",
"529 53 CURVE SMOOTH",
"569 75 OFFCURVE",
"628 104 OFFCURVE",
"641 152 CURVE SMOOTH",
"660 221 OFFCURVE",
"593 258 OFFCURVE",
"538 272 CURVE SMOOTH",
"475 288 OFFCURVE",
"410 293 OFFCURVE",
"347 304 CURVE SMOOTH",
"290 313 OFFCURVE",
"226 322 OFFCURVE",
"181 362 CURVE SMOOTH",
"134 403 OFFCURVE",
"167 467 OFFCURVE",
"209 497 CURVE SMOOTH",
"247 523 OFFCURVE",
"318 539 OFFCURVE",
"373 536 CURVE",
"390 514 OFFCURVE",
"409 494 OFFCURVE",
"423 478 CURVE SMOOTH",
"455 439 OFFCURVE",
"529 357 OFFCURVE",
"587 378 CURVE SMOOTH",
"608 386 OFFCURVE",
"618 410 OFFCURVE",
"612 432 CURVE SMOOTH",
"602 468 OFFCURVE",
"565 489 OFFCURVE",
"537 509 CURVE SMOOTH",
"481 547 OFFCURVE",
"434 601 OFFCURVE",
"382 644 CURVE SMOOTH",
"363 659 OFFCURVE",
"338 649 OFFCURVE",
"336 625 CURVE SMOOTH",
"335 617 OFFCURVE",
"336 608 OFFCURVE",
"339 600 CURVE",
"255 612 OFFCURVE",
"163 588 OFFCURVE",
"105 534 CURVE SMOOTH",
"6 441 OFFCURVE",
"51 304 OFFCURVE",
"155 242 CURVE SMOOTH"
);
}
);
width = 694;
}
);
unicode = 0053;
},
{
glyphname = T;
lastChange = "2013-04-17 12:23:21 +0000";
layers = (
{
anchors = (
{
name = bottom;
position = "{377, 0}";
},
{
name = center;
position = "{377, 250}";
},
{
name = top;
position = "{377, 500}";
}
);
layerId = "A6F8BADE-1492-427D-9C9D-3E9580E82F52";
name = Regular;
paths = (
{
closed = 1;
nodes = (
"300 605 OFFCURVE",
"255 602 OFFCURVE",
"210 599 CURVE SMOOTH",
"168 597 OFFCURVE",
"120 582 OFFCURVE",
"77 586 CURVE SMOOTH",
"44 589 OFFCURVE",
"41 540 OFFCURVE",
"70 530 CURVE SMOOTH",
"135 508 OFFCURVE",
"216 506 OFFCURVE",
"288 506 CURVE",
"280 468 OFFCURVE",
"274 432 OFFCURVE",
"272 392 CURVE SMOOTH",
"269 326 OFFCURVE",
"271 260 OFFCURVE",
"276 194 CURVE SMOOTH",
"281 134 OFFCURVE",
"289 74 OFFCURVE",
"297 14 CURVE SMOOTH",
"303 -27 OFFCURVE",
"331 -89 OFFCURVE",
"383 -74 CURVE SMOOTH",
"436 -60 OFFCURVE",
"421 8 OFFCURVE",
"415 47 CURVE SMOOTH",
"405 109 OFFCURVE",
"398 171 OFFCURVE",
"392 234 CURVE SMOOTH",
"385 299 OFFCURVE",
"383 365 OFFCURVE",
"378 431 CURVE SMOOTH",
"377 454 OFFCURVE",
"377 481 OFFCURVE",
"373 505 CURVE",
"452 504 OFFCURVE",
"532 503 OFFCURVE",
"609 518 CURVE SMOOTH",
"654 527 OFFCURVE",
"653 597 OFFCURVE",
"609 607 CURVE SMOOTH",
"523 627 OFFCURVE",
"433 614 OFFCURVE",
"345 608 CURVE SMOOTH"
);
}
);
width = 692;
}
);
unicode = 0054;
},
{
glyphname = U;
lastChange = "2013-04-17 12:23:21 +0000";
layers = (
{
anchors = (
{
name = ogonek;
position = "{802, 10}";
},
{
name = top;
position = "{402, 500}";
}
);
layerId = "A6F8BADE-1492-427D-9C9D-3E9580E82F52";
name = Regular;
paths = (
{
closed = 1;
nodes = (
"606 9 OFFCURVE",
"608 5 OFFCURVE",
"610 2 CURVE SMOOTH",
"638 -36 OFFCURVE",
"708 -28 OFFCURVE",
"706 28 CURVE SMOOTH",
"704 77 OFFCURVE",
"689 123 OFFCURVE",
"676 170 CURVE SMOOTH",
"661 225 OFFCURVE",
"649 281 OFFCURVE",
"635 336 CURVE SMOOTH",
"622 385 OFFCURVE",
"608 433 OFFCURVE",
"593 482 CURVE SMOOTH",
"579 524 OFFCURVE",
"567 578 OFFCURVE",
"533 609 CURVE SMOOTH",
"513 627 OFFCURVE",
"482 612 OFFCURVE",
"481 589 CURVE",
"461 501 OFFCURVE",
"502 389 OFFCURVE",
"519 304 CURVE SMOOTH",
"531 242 OFFCURVE",
"540 169 OFFCURVE",
"561 103 CURVE",
"498 109 OFFCURVE",
"432 96 OFFCURVE",
"369 106 CURVE SMOOTH",
"309 117 OFFCURVE",
"243 136 OFFCURVE",
"197 176 CURVE SMOOTH",
"143 224 OFFCURVE",
"160 302 OFFCURVE",
"170 365 CURVE SMOOTH",
"175 402 OFFCURVE",
"181 438 OFFCURVE",
"185 475 CURVE SMOOTH",
"188 505 OFFCURVE",
"196 532 OFFCURVE",
"180 559 CURVE SMOOTH",
"169 579 OFFCURVE",
"137 575 OFFCURVE",
"131 552 CURVE SMOOTH",
"121 515 OFFCURVE",
"101 478 OFFCURVE",
"89 441 CURVE SMOOTH",
"76 397 OFFCURVE",
"63 354 OFFCURVE",
"55 309 CURVE SMOOTH",
"40 222 OFFCURVE",
"56 145 OFFCURVE",
"122 83 CURVE SMOOTH",
"180 30 OFFCURVE",
"260 3 OFFCURVE",
"336 -12 CURVE SMOOTH",
"418 -29 OFFCURVE",
"531 -41 OFFCURVE",
"603 12 CURVE"
);
}
);
width = 756;
}
);
unicode = 0055;
},
{
glyphname = V;
lastChange = "2013-04-17 12:23:21 +0000";
layers = (
{
layerId = "A6F8BADE-1492-427D-9C9D-3E9580E82F52";
name = Regular;
paths = (
{
closed = 1;
nodes = (
"522 550 OFFCURVE",
"490 515 OFFCURVE",
"463 475 CURVE SMOOTH",
"436 433 OFFCURVE",
"418 383 OFFCURVE",
"400 337 CURVE SMOOTH",
"377 280 OFFCURVE",
"346 211 OFFCURVE",
"333 142 CURVE",
"313 182 OFFCURVE",
"293 222 OFFCURVE",
"272 261 CURVE SMOOTH",
"246 309 OFFCURVE",
"217 355 OFFCURVE",
"185 399 CURVE SMOOTH",
"157 437 OFFCURVE",
"120 473 OFFCURVE",
"100 517 CURVE SMOOTH",
"93 531 OFFCURVE",
"67 532 OFFCURVE",
"60 517 CURVE SMOOTH",
"43 476 OFFCURVE",
"50 444 OFFCURVE",
"69 404 CURVE SMOOTH",
"96 347 OFFCURVE",
"128 293 OFFCURVE",
"157 237 CURVE SMOOTH",
"188 176 OFFCURVE",
"213 114 OFFCURVE",
"240 51 CURVE SMOOTH",
"263 -2 OFFCURVE",
"295 -52 OFFCURVE",
"349 -77 CURVE SMOOTH",
"390 -96 OFFCURVE",
"435 -57 OFFCURVE",
"412 -14 CURVE SMOOTH",
"408 -7 OFFCURVE",
"404 1 OFFCURVE",
"400 9 CURVE",
"428 40 OFFCURVE",
"438 77 OFFCURVE",
"448 118 CURVE SMOOTH",
"461 170 OFFCURVE",
"475 223 OFFCURVE",
"492 274 CURVE SMOOTH",
"523 372 OFFCURVE",
"566 460 OFFCURVE",
"610 552 CURVE SMOOTH",
"629 593 OFFCURVE",
"576 623 OFFCURVE",
"550 588 CURVE SMOOTH"
);
}
);
width = 664;
}
);
unicode = 0056;
},
{
glyphname = W;
lastChange = "2013-04-17 12:23:21 +0000";
layers = (
{
anchors = (
{
name = top;
position = "{410, 500}";
}
);
layerId = "A6F8BADE-1492-427D-9C9D-3E9580E82F52";
name = Regular;
paths = (
{
closed = 1;
nodes = (
"347 -11 OFFCURVE",
"357 1 OFFCURVE",
"355 16 CURVE",
"393 62 OFFCURVE",
"375 117 OFFCURVE",
"384 206 CURVE SMOOTH",
"386 235 OFFCURVE",
"394 264 OFFCURVE",
"401 292 CURVE",
"415 243 OFFCURVE",
"425 193 OFFCURVE",
"436 143 CURVE SMOOTH",
"454 65 OFFCURVE",
"468 -25 OFFCURVE",
"536 -75 CURVE SMOOTH",
"562 -94 OFFCURVE",
"598 -69 OFFCURVE",
"598 -40 CURVE SMOOTH",
"598 -35 OFFCURVE",
"597 -31 OFFCURVE",
"597 -26 CURVE",
"600 -23 OFFCURVE",
"602 -19 OFFCURVE",
"603 -15 CURVE SMOOTH",
"640 76 OFFCURVE",
"657 181 OFFCURVE",
"681 276 CURVE SMOOTH",
"706 376 OFFCURVE",
"740 474 OFFCURVE",
"759 576 CURVE SMOOTH",
"767 620 OFFCURVE",
"703 639 OFFCURVE",
"691 594 CURVE SMOOTH",
"676 544 OFFCURVE",
"650 497 OFFCURVE",
"630 448 CURVE SMOOTH",
"609 396 OFFCURVE",
"591 341 OFFCURVE",
"573 288 CURVE SMOOTH",
"562 256 OFFCURVE",
"549 222 OFFCURVE",
"537 187 CURVE",
"535 193 OFFCURVE",
"534 199 OFFCURVE",
"532 205 CURVE SMOOTH",
"510 282 OFFCURVE",
"477 344 OFFCURVE",
"435 409 CURVE",
"436 422 OFFCURVE",
"427 434 OFFCURVE",
"414 438 CURVE",
"392 457 OFFCURVE",
"359 440 OFFCURVE",
"358 412 CURVE",
"325 372 OFFCURVE",
"310 299 OFFCURVE",
"297 257 CURVE SMOOTH",
"292 243 OFFCURVE",
"287 226 OFFCURVE",
"282 207 CURVE",
"272 233 OFFCURVE",
"260 258 OFFCURVE",
"246 283 CURVE SMOOTH",
"220 328 OFFCURVE",
"187 369 OFFCURVE",
"149 405 CURVE SMOOTH",
"132 422 OFFCURVE",
"97 455 OFFCURVE",
"70 444 CURVE SMOOTH",
"49 436 OFFCURVE",
"44 415 OFFCURVE",
"58 398 CURVE SMOOTH",
"113 327 OFFCURVE",
"158 252 OFFCURVE",
"188 166 CURVE SMOOTH",
"207 109 OFFCURVE",
"240 -48 OFFCURVE",
"331 -17 CURVE SMOOTH"
);
}
);
width = 810;
}
);
unicode = 0057;
},
{
glyphname = X;
lastChange = "2013-04-17 12:23:21 +0000";
layers = (
{
layerId = "A6F8BADE-1492-427D-9C9D-3E9580E82F52";
name = Regular;
paths = (
{
closed = 1;
nodes = (
"630 116 OFFCURVE",
"579 143 OFFCURVE",
"534 183 CURVE SMOOTH",
"511 203 OFFCURVE",
"489 225 OFFCURVE",
"467 247 CURVE",
"470 250 OFFCURVE",
"472 253 OFFCURVE",
"475 257 CURVE SMOOTH",
"553 353 OFFCURVE",
"634 464 OFFCURVE",
"641 593 CURVE SMOOTH",
"644 632 OFFCURVE",
"579 641 OFFCURVE",
"571 602 CURVE SMOOTH",
"550 496 OFFCURVE",
"466 406 OFFCURVE",
"391 327 CURVE",
"390 328 OFFCURVE",
"389 329 OFFCURVE",
"388 330 CURVE SMOOTH",
"344 376 OFFCURVE",
"297 421 OFFCURVE",
"248 463 CURVE SMOOTH",
"201 501 OFFCURVE",
"148 528 OFFCURVE",
"97 560 CURVE SMOOTH",
"65 580 OFFCURVE",
"35 536 OFFCURVE",
"58 510 CURVE SMOOTH",
"99 464 OFFCURVE",
"149 426 OFFCURVE",
"191 382 CURVE SMOOTH",
"234 338 OFFCURVE",
"273 292 OFFCURVE",
"312 246 CURVE",
"238 168 OFFCURVE",
"157 82 OFFCURVE",
"129 -17 CURVE SMOOTH",
"115 -65 OFFCURVE",
"175 -96 OFFCURVE",
"210 -64 CURVE SMOOTH",
"258 -21 OFFCURVE",
"294 33 OFFCURVE",
"333 84 CURVE SMOOTH",
"352 108 OFFCURVE",
"371 131 OFFCURVE",
"390 154 CURVE",
"461 73 OFFCURVE",
"549 -13 OFFCURVE",
"653 -11 CURVE SMOOTH",
"705 -10 OFFCURVE",
"715 52 OFFCURVE",
"678 80 CURVE SMOOTH"
);
}
);
width = 750;
}
);
unicode = 0058;
},
{
glyphname = Y;
lastChange = "2013-04-17 12:23:21 +0000";
layers = (
{
anchors = (
{
name = top;
position = "{382, 500}";
}
);
layerId = "A6F8BADE-1492-427D-9C9D-3E9580E82F52";
name = Regular;
paths = (
{
closed = 1;
nodes = (
"724 609 OFFCURVE",
"689 654 OFFCURVE",
"658 635 CURVE SMOOTH",
"529 555 OFFCURVE",
"429 440 OFFCURVE",
"346 313 CURVE SMOOTH",
"344 310 OFFCURVE",
"342 307 OFFCURVE",
"340 304 CURVE",
"334 312 OFFCURVE",
"327 320 OFFCURVE",
"321 328 CURVE SMOOTH",
"296 363 OFFCURVE",
"276 402 OFFCURVE",
"254 438 CURVE SMOOTH",
"215 502 OFFCURVE",
"163 575 OFFCURVE",
"108 626 CURVE SMOOTH",
"85 646 OFFCURVE",
"39 627 OFFCURVE",
"52 594 CURVE SMOOTH",
"84 512 OFFCURVE",
"126 442 OFFCURVE",
"169 366 CURVE SMOOTH",
"201 309 OFFCURVE",
"232 239 OFFCURVE",
"292 208 CURVE",
"280 174 OFFCURVE",
"273 138 OFFCURVE",
"275 101 CURVE SMOOTH",
"276 66 OFFCURVE",
"288 28 OFFCURVE",
"303 -3 CURVE SMOOTH",
"319 -37 OFFCURVE",
"326 -72 OFFCURVE",
"353 -99 CURVE SMOOTH",
"370 -117 OFFCURVE",
"399 -112 OFFCURVE",
"411 -91 CURVE SMOOTH",
"446 -37 OFFCURVE",
"424 24 OFFCURVE",
"407 81 CURVE SMOOTH",
"387 150 OFFCURVE",
"421 211 OFFCURVE",
"453 271 CURVE SMOOTH",
"516 388 OFFCURVE",
"598 497 OFFCURVE",
"697 585 CURVE SMOOTH"
);
}
);
width = 757;
}
);
unicode = 0059;
},
{
glyphname = Z;
lastChange = "2013-04-17 12:23:21 +0000";
layers = (
{
anchors = (
{
name = top;
position = "{372, 500}";
}
);
layerId = "A6F8BADE-1492-427D-9C9D-3E9580E82F52";
name = Regular;
paths = (
{
closed = 1;
nodes = (
"642 90 OFFCURVE",
"633 121 OFFCURVE",
"624 152 CURVE SMOOTH",
"608 211 OFFCURVE",
"597 278 OFFCURVE",
"563 329 CURVE SMOOTH",
"546 353 OFFCURVE",
"512 349 OFFCURVE",
"503 321 CURVE SMOOTH",
"493 290 OFFCURVE",
"501 252 OFFCURVE",
"505 220 CURVE SMOOTH",
"510 182 OFFCURVE",
"515 145 OFFCURVE",
"522 107 CURVE SMOOTH",
"525 89 OFFCURVE",
"529 69 OFFCURVE",
"535 48 CURVE",
"495 51 OFFCURVE",
"455 53 OFFCURVE",
"415 54 CURVE SMOOTH",
"349 55 OFFCURVE",
"281 54 OFFCURVE",
"214 45 CURVE",
"218 50 OFFCURVE",
"221 54 OFFCURVE",
"225 59 CURVE SMOOTH",
"269 110 OFFCURVE",
"311 165 OFFCURVE",
"351 219 CURVE SMOOTH",
"392 272 OFFCURVE",
"429 327 OFFCURVE",
"466 383 CURVE SMOOTH",
"493 425 OFFCURVE",
"521 472 OFFCURVE",
"536 521 CURVE",
"546 527 OFFCURVE",
"555 535 OFFCURVE",
"563 547 CURVE SMOOTH",
"573 562 OFFCURVE",
"569 584 OFFCURVE",
"556 597 CURVE SMOOTH",
"505 649 OFFCURVE",
"399 605 OFFCURVE",
"338 591 CURVE SMOOTH",
"296 581 OFFCURVE",
"254 572 OFFCURVE",
"212 568 CURVE SMOOTH",
"176 563 OFFCURVE",
"140 570 OFFCURVE",
"105 565 CURVE SMOOTH",
"87 562 OFFCURVE",
"84 540 OFFCURVE",
"90 527 CURVE SMOOTH",
"119 460 OFFCURVE",
"239 468 OFFCURVE",
"296 475 CURVE SMOOTH",
"331 478 OFFCURVE",
"365 483 OFFCURVE",
"399 489 CURVE",
"389 473 OFFCURVE",
"378 457 OFFCURVE",
"367 441 CURVE SMOOTH",
"326 386 OFFCURVE",
"284 333 OFFCURVE",
"242 279 CURVE SMOOTH",
"200 225 OFFCURVE",
"156 172 OFFCURVE",
"114 118 CURVE SMOOTH",
"78 73 OFFCURVE",
"41 30 OFFCURVE",
"52 -30 CURVE SMOOTH",
"55 -50 OFFCURVE",
"81 -65 OFFCURVE",
"100 -58 CURVE SMOOTH",
"111 -54 OFFCURVE",
"120 -48 OFFCURVE",
"130 -42 CURVE",
"224 -56 OFFCURVE",
"321 -52 OFFCURVE",
"415 -59 CURVE SMOOTH",
"467 -62 OFFCURVE",
"518 -67 OFFCURVE",
"569 -73 CURVE SMOOTH",
"581 -75 OFFCURVE",
"595 -76 OFFCURVE",
"609 -75 CURVE",
"612 -78 OFFCURVE",
"616 -80 OFFCURVE",
"620 -82 CURVE SMOOTH",
"661 -100 OFFCURVE",
"697 -70 OFFCURVE",
"691 -27 CURVE SMOOTH",
"687 5 OFFCURVE",
"667 30 OFFCURVE",
"655 59 CURVE SMOOTH"
);
}
);
width = 742;
}
);
unicode = 005A;
},
{
glyphname = a;
lastChange = "2013-04-17 12:23:21 +0000";
layers = (
{
anchors = (
{
name = ogonek;
position = "{767, 10}";
},
{
name = top;
position = "{367, 250}";
}
);
layerId = "A6F8BADE-1492-427D-9C9D-3E9580E82F52";
name = Regular;
paths = (
{
closed = 1;
nodes = (
"322 302 OFFCURVE",
"268 288 OFFCURVE",
"219 269 CURVE SMOOTH",
"138 238 OFFCURVE",
"31 167 OFFCURVE",
"53 65 CURVE SMOOTH",
"75 -38 OFFCURVE",
"178 -67 OFFCURVE",
"270 -76 CURVE SMOOTH",
"361 -85 OFFCURVE",
"467 -64 OFFCURVE",
"537 -3 CURVE",
"556 -14 OFFCURVE",
"581 -14 OFFCURVE",
"596 4 CURVE SMOOTH",
"650 72 OFFCURVE",
"615 175 OFFCURVE",
"613 255 CURVE SMOOTH",
"612 297 OFFCURVE",
"607 338 OFFCURVE",
"606 380 CURVE SMOOTH",
"605 408 OFFCURVE",
"608 462 OFFCURVE",
"590 485 CURVE SMOOTH",
"542 548 OFFCURVE",
"453 532 OFFCURVE",
"386 513 CURVE SMOOTH",
"308 490 OFFCURVE",
"212 471 OFFCURVE",
"149 415 CURVE SMOOTH",
"123 391 OFFCURVE",
"152 358 OFFCURVE",
"180 362 CURVE SMOOTH",
"241 371 OFFCURVE",
"299 393 OFFCURVE",
"359 407 CURVE SMOOTH",
"389 414 OFFCURVE",
"420 420 OFFCURVE",
"450 424 CURVE SMOOTH",
"463 425 OFFCURVE",
"475 425 OFFCURVE",
"487 424 CURVE",
"487 420 OFFCURVE",
"487 416 OFFCURVE",
"487 412 CURVE SMOOTH",
"487 372 OFFCURVE",
"488 331 OFFCURVE",
"489 291 CURVE",
"481 294 OFFCURVE",
"472 296 OFFCURVE",
"464 297 CURVE SMOOTH",
"434 301 OFFCURVE",
"405 302 OFFCURVE",
"374 302 CURVE SMOOTH"
);
},
{
closed = 1;
nodes = (
"491 219 OFFCURVE",
"491 219 OFFCURVE",
"491 218 CURVE SMOOTH",
"492 182 OFFCURVE",
"492 138 OFFCURVE",
"497 97 CURVE",
"439 70 OFFCURVE",
"387 50 OFFCURVE",
"322 43 CURVE SMOOTH",
"284 40 OFFCURVE",
"165 37 OFFCURVE",
"160 94 CURVE SMOOTH",
"155 152 OFFCURVE",
"281 192 OFFCURVE",
"321 205 CURVE SMOOTH",
"357 216 OFFCURVE",
"392 220 OFFCURVE",
"429 222 CURVE SMOOTH",
"449 223 OFFCURVE",
"471 220 OFFCURVE",
"491 220 CURVE"
);
}
);
width = 676;
}
);
unicode = 0061;
},
{
glyphname = b;
lastChange = "2013-04-17 12:23:21 +0000";
layers = (
{
layerId = "A6F8BADE-1492-427D-9C9D-3E9580E82F52";
name = Regular;
paths = (
{
closed = 1;
nodes = (
"410 491 OFFCURVE",
"352 485 OFFCURVE",
"294 474 CURVE SMOOTH",
"260 468 OFFCURVE",
"221 459 OFFCURVE",
"187 444 CURVE",
"182 454 OFFCURVE",
"178 465 OFFCURVE",
"173 476 CURVE SMOOTH",
"163 499 OFFCURVE",
"153 523 OFFCURVE",
"142 546 CURVE SMOOTH",
"132 566 OFFCURVE",
"112 584 OFFCURVE",
"107 605 CURVE SMOOTH",
"97 643 OFFCURVE",
"45 626 OFFCURVE",
"50 590 CURVE SMOOTH",
"56 547 OFFCURVE",
"76 502 OFFCURVE",
"87 460 CURVE SMOOTH",
"101 406 OFFCURVE",
"116 352 OFFCURVE",
"129 298 CURVE SMOOTH",
"141 246 OFFCURVE",
"154 193 OFFCURVE",
"165 140 CURVE SMOOTH",
"175 91 OFFCURVE",
"182 37 OFFCURVE",
"216 -3 CURVE SMOOTH",
"230 -20 OFFCURVE",
"251 -15 OFFCURVE",
"265 -2 CURVE",
"355 -46 OFFCURVE",
"470 -40 OFFCURVE",
"561 -1 CURVE SMOOTH",
"676 46 OFFCURVE",
"734 156 OFFCURVE",
"717 276 CURVE SMOOTH",
"700 396 OFFCURVE",
"581 473 OFFCURVE",
"469 485 CURVE SMOOTH"
);
},
{
closed = 1;
nodes = (
"429 68 OFFCURVE",
"360 86 OFFCURVE",
"287 98 CURVE",
"283 176 OFFCURVE",
"249 263 OFFCURVE",
"229 326 CURVE SMOOTH",
"225 338 OFFCURVE",
"220 351 OFFCURVE",
"216 363 CURVE",
"354 399 OFFCURVE",
"558 424 OFFCURVE",
"609 274 CURVE SMOOTH",
"636 192 OFFCURVE",
"579 120 OFFCURVE",
"505 94 CURVE SMOOTH"
);
}
);
width = 770;
}
);
unicode = 0062;
},
{
glyphname = c;
lastChange = "2013-04-17 12:23:21 +0000";
layers = (
{
anchors = (
{
name = bottom;
position = "{374, 0}";
},
{
name = top;
position = "{374, 250}";
}
);
layerId = "A6F8BADE-1492-427D-9C9D-3E9580E82F52";
name = Regular;
paths = (
{
closed = 1;
nodes = (
"452 -20 OFFCURVE",
"615 32 OFFCURVE",
"630 163 CURVE SMOOTH",
"633 185 OFFCURVE",
"605 206 OFFCURVE",
"584 198 CURVE SMOOTH",
"554 187 OFFCURVE",
"529 166 OFFCURVE",
"502 149 CURVE SMOOTH",
"467 128 OFFCURVE",
"431 114 OFFCURVE",
"392 105 CURVE SMOOTH",
"321 88 OFFCURVE",
"223 96 OFFCURVE",
"175 159 CURVE SMOOTH",
"127 223 OFFCURVE",
"167 308 OFFCURVE",
"224 351 CURVE SMOOTH",
"286 398 OFFCURVE",
"368 409 OFFCURVE",
"441 388 CURVE",
"423 345 OFFCURVE",
"413 300 OFFCURVE",
"432 260 CURVE SMOOTH",
"445 233 OFFCURVE",
"484 232 OFFCURVE",
"503 251 CURVE SMOOTH",
"535 283 OFFCURVE",
"539 334 OFFCURVE",
"552 376 CURVE SMOOTH",
"566 420 OFFCURVE",
"580 463 OFFCURVE",
"567 509 CURVE SMOOTH",
"557 546 OFFCURVE",
"512 539 OFFCURVE",
"500 509 CURVE SMOOTH",
"492 489 OFFCURVE",
"480 467 OFFCURVE",
"468 444 CURVE",
"374 476 OFFCURVE",
"268 476 OFFCURVE",
"180 427 CURVE SMOOTH",
"79 371 OFFCURVE",
"25 250 OFFCURVE",
"61 139 CURVE SMOOTH",
"97 27 OFFCURVE",
"230 -24 OFFCURVE",
"338 -22 CURVE SMOOTH"
);
}
);
width = 680;
}
);
unicode = 0063;
},
{
glyphname = d;
lastChange = "2013-04-17 12:23:21 +0000";
layers = (
{
anchors = (
{
name = center;
position = "{387, 125}";
}
);
layerId = "A6F8BADE-1492-427D-9C9D-3E9580E82F52";
name = Regular;
paths = (
{
closed = 1;
nodes = (
"335 -89 OFFCURVE",
"451 -68 OFFCURVE",
"515 -6 CURVE",
"517 -9 OFFCURVE",
"520 -12 OFFCURVE",
"522 -15 CURVE SMOOTH",
"547 -44 OFFCURVE",
"594 -19 OFFCURVE",
"594 15 CURVE SMOOTH",
"594 66 OFFCURVE",
"585 118 OFFCURVE",
"584 170 CURVE SMOOTH",
"582 225 OFFCURVE",
"585 281 OFFCURVE",
"585 336 CURVE SMOOTH",
"584 438 OFFCURVE",
"571 529 OFFCURVE",
"537 625 CURVE",
"537 629 OFFCURVE",
"536 633 OFFCURVE",
"533 636 CURVE SMOOTH",
"519 655 OFFCURVE",
"491 654 OFFCURVE",
"483 630 CURVE SMOOTH",
"470 590 OFFCURVE",
"488 539 OFFCURVE",
"489 498 CURVE SMOOTH",
"491 461 OFFCURVE",
"490 424 OFFCURVE",
"489 387 CURVE",
"404 425 OFFCURVE",
"294 424 OFFCURVE",
"209 396 CURVE SMOOTH",
"101 362 OFFCURVE",
"44 251 OFFCURVE",
"51 143 CURVE SMOOTH",
"57 35 OFFCURVE",
"151 -55 OFFCURVE",
"254 -74 CURVE SMOOTH"
);
},
{
closed = 1;
nodes = (
"329 333 OFFCURVE",
"419 339 OFFCURVE",
"485 321 CURVE",
"485 320 OFFCURVE",
"485 318 OFFCURVE",
"485 317 CURVE SMOOTH",
"480 248 OFFCURVE",
"465 161 OFFCURVE",
"478 86 CURVE",
"424 72 OFFCURVE",
"375 43 OFFCURVE",
"316 39 CURVE SMOOTH",
"245 34 OFFCURVE",
"186 74 OFFCURVE",
"165 143 CURVE SMOOTH",
"141 219 OFFCURVE",
"200 287 OFFCURVE",
"267 311 CURVE SMOOTH"
);
}
);
width = 644;
}
);
unicode = 0064;
},
{
glyphname = e;
lastChange = "2013-04-17 12:23:21 +0000";
layers = (
{
anchors = (
{
name = bottom;
position = "{273, 0}";
},
{
name = ogonek;
position = "{673, 10}";
},
{
name = top;
position = "{273, 250}";
}
);
layerId = "A6F8BADE-1492-427D-9C9D-3E9580E82F52";
name = Regular;
paths = (
{
closed = 1;
nodes = (
"494 142 OFFCURVE",
"400 109 OFFCURVE",
"287 116 CURVE SMOOTH",
"241 119 OFFCURVE",
"195 133 OFFCURVE",
"170 173 CURVE SMOOTH",
"166 179 OFFCURVE",
"163 185 OFFCURVE",
"161 193 CURVE",
"220 171 OFFCURVE",
"285 169 OFFCURVE",
"351 176 CURVE SMOOTH",
"434 184 OFFCURVE",
"543 214 OFFCURVE",
"584 295 CURVE SMOOTH",
"630 386 OFFCURVE",
"536 452 OFFCURVE",
"463 481 CURVE SMOOTH",
"378 515 OFFCURVE",
"280 496 OFFCURVE",
"199 458 CURVE SMOOTH",
"35 381 OFFCURVE",
"-14 127 OFFCURVE",
"156 29 CURVE SMOOTH",
"227 -12 OFFCURVE",
"319 -12 OFFCURVE",
"398 -4 CURVE SMOOTH",
"499 7 OFFCURVE",
"602 43 OFFCURVE",
"651 138 CURVE SMOOTH",
"670 176 OFFCURVE",
"630 220 OFFCURVE",
"591 198 CURVE SMOOTH"
);
},
{
closed = 1;
nodes = (
"235 371 OFFCURVE",
"291 392 OFFCURVE",
"342 397 CURVE SMOOTH",
"363 399 OFFCURVE",
"522 374 OFFCURVE",
"487 331 CURVE SMOOTH",
"453 287 OFFCURVE",
"366 273 OFFCURVE",
"315 268 CURVE SMOOTH",
"266 262 OFFCURVE",
"215 259 OFFCURVE",
"169 275 CURVE",
"177 298 OFFCURVE",
"189 319 OFFCURVE",
"201 333 CURVE SMOOTH"
);
}
);
width = 706;
}
);
unicode = 0065;
},
{
glyphname = f;
lastChange = "2013-04-17 12:23:21 +0000";
layers = (
{
layerId = "A6F8BADE-1492-427D-9C9D-3E9580E82F52";
name = Regular;
paths = (
{
closed = 1;
nodes = (
"46 377 OFFCURVE",
"56 306 OFFCURVE",
"70 235 CURVE SMOOTH",
"77 199 OFFCURVE",
"85 162 OFFCURVE",
"90 125 CURVE SMOOTH",
"95 93 OFFCURVE",
"91 58 OFFCURVE",
"104 27 CURVE SMOOTH",
"123 -19 OFFCURVE",
"191 -28 OFFCURVE",
"206 27 CURVE SMOOTH",
"227 102 OFFCURVE",
"203 186 OFFCURVE",
"184 263 CURVE",
"187 261 OFFCURVE",
"191 261 OFFCURVE",
"195 261 CURVE SMOOTH",
"265 263 OFFCURVE",
"348 268 OFFCURVE",
"416 252 CURVE SMOOTH",
"487 236 OFFCURVE",
"515 338 OFFCURVE",
"446 360 CURVE SMOOTH",
"404 374 OFFCURVE",
"360 363 OFFCURVE",
"318 358 CURVE SMOOTH",
"273 352 OFFCURVE",
"229 343 OFFCURVE",
"186 333 CURVE SMOOTH",
"179 331 OFFCURVE",
"173 328 OFFCURVE",
"169 324 CURVE",
"160 365 OFFCURVE",
"154 407 OFFCURVE",
"154 450 CURVE SMOOTH",
"154 486 OFFCURVE",
"188 531 OFFCURVE",
"227 540 CURVE",
"240 532 OFFCURVE",
"254 525 OFFCURVE",
"268 518 CURVE SMOOTH",
"319 491 OFFCURVE",
"386 452 OFFCURVE",
"445 456 CURVE SMOOTH",
"481 458 OFFCURVE",
"495 496 OFFCURVE",
"473 523 CURVE SMOOTH",
"433 571 OFFCURVE",
"351 580 OFFCURVE",
"296 603 CURVE SMOOTH",
"242 626 OFFCURVE",
"190 651 OFFCURVE",
"134 668 CURVE SMOOTH",
"98 680 OFFCURVE",
"79 629 OFFCURVE",
"109 610 CURVE SMOOTH",
"120 603 OFFCURVE",
"131 596 OFFCURVE",
"142 589 CURVE",
"93 561 OFFCURVE",
"56 509 OFFCURVE",
"52 450 CURVE SMOOTH"
);
}
);
width = 536;
}
);
unicode = 0066;
},
{
glyphname = g;
lastChange = "2013-04-17 12:23:21 +0000";
layers = (
{
anchors = (
{
name = top;
position = "{237, 250}";
}
);
layerId = "A6F8BADE-1492-427D-9C9D-3E9580E82F52";
name = Regular;
paths = (
{
closed = 1;
nodes = (
"349 169 OFFCURVE",
"296 163 OFFCURVE",
"249 147 CURVE",
"244 158 OFFCURVE",
"238 168 OFFCURVE",
"233 178 CURVE SMOOTH",
"231 180 OFFCURVE",
"230 183 OFFCURVE",
"229 185 CURVE",
"250 187 OFFCURVE",
"271 191 OFFCURVE",
"291 198 CURVE SMOOTH",
"364 223 OFFCURVE",
"433 285 OFFCURVE",
"420 369 CURVE SMOOTH",
"409 432 OFFCURVE",
"353 482 OFFCURVE",
"293 485 CURVE",
"293 488 OFFCURVE",
"293 491 OFFCURVE",
"293 493 CURVE SMOOTH",
"293 537 OFFCURVE",
"306 582 OFFCURVE",
"290 625 CURVE SMOOTH",
"278 655 OFFCURVE",
"228 663 OFFCURVE",
"220 625 CURVE SMOOTH",
"210 575 OFFCURVE",
"190 529 OFFCURVE",
"187 478 CURVE",
"182 495 OFFCURVE",
"163 508 OFFCURVE",
"146 497 CURVE SMOOTH",
"75 449 OFFCURVE",
"28 360 OFFCURVE",
"61 276 CURVE SMOOTH",
"75 238 OFFCURVE",
"102 213 OFFCURVE",
"135 199 CURVE",
"144 167 OFFCURVE",
"147 128 OFFCURVE",
"167 101 CURVE",
"154 88 OFFCURVE",
"144 73 OFFCURVE",
"139 56 CURVE",
"132 53 OFFCURVE",
"125 48 OFFCURVE",
"120 42 CURVE SMOOTH",
"40 -65 OFFCURVE",
"125 -203 OFFCURVE",
"245 -219 CURVE SMOOTH",
"358 -234 OFFCURVE",
"526 -189 OFFCURVE",
"578 -78 CURVE SMOOTH",
"635 45 OFFCURVE",
"492 154 OFFCURVE",
"385 165 CURVE SMOOTH"
);
},
{
closed = 1;
nodes = (
"183 456 OFFCURVE",
"185 459 OFFCURVE",
"186 463 CURVE",
"186 460 OFFCURVE",
"186 456 OFFCURVE",
"186 453 CURVE SMOOTH",
"188 426 OFFCURVE",
"208 401 OFFCURVE",
"236 400 CURVE",
"267 389 OFFCURVE",
"307 387 OFFCURVE",
"318 355 CURVE SMOOTH",
"328 322 OFFCURVE",
"275 300 OFFCURVE",
"253 292 CURVE SMOOTH",
"216 279 OFFCURVE",
"166 274 OFFCURVE",
"140 309 CURVE SMOOTH",
"106 355 OFFCURVE",
"146 421 OFFCURVE",
"180 453 CURVE SMOOTH"
);
},
{
closed = 1;
nodes = (
"411 -96 OFFCURVE",
"337 -112 OFFCURVE",
"273 -110 CURVE SMOOTH",
"194 -109 OFFCURVE",
"199 -42 OFFCURVE",
"191 16 CURVE",
"230 63 OFFCURVE",
"295 73 OFFCURVE",
"354 69 CURVE SMOOTH",
"400 66 OFFCURVE",
"537 -1 OFFCURVE",
"462 -57 CURVE SMOOTH"
);
}
);
width = 641;
}
);
unicode = 0067;
},
{
glyphname = h;
lastChange = "2013-04-17 12:23:21 +0000";
layers = (
{
anchors = (
{
name = center;
position = "{310, 125}";
},
{
name = top;
position = "{310, 250}";
}
);
layerId = "A6F8BADE-1492-427D-9C9D-3E9580E82F52";
name = Regular;
paths = (
{
closed = 1;
nodes = (
"546 291 OFFCURVE",
"551 389 OFFCURVE",
"505 427 CURVE SMOOTH",
"447 476 OFFCURVE",
"380 461 OFFCURVE",
"314 433 CURVE SMOOTH",
"267 414 OFFCURVE",
"221 389 OFFCURVE",
"181 357 CURVE",
"172 405 OFFCURVE",
"163 454 OFFCURVE",
"151 502 CURVE SMOOTH",
"139 550 OFFCURVE",
"122 611 OFFCURVE",
"79 641 CURVE SMOOTH",
"66 650 OFFCURVE",
"53 638 OFFCURVE",
"51 625 CURVE SMOOTH",
"45 572 OFFCURVE",
"63 513 OFFCURVE",
"72 461 CURVE SMOOTH",
"83 394 OFFCURVE",
"89 326 OFFCURVE",
"98 259 CURVE SMOOTH",
"104 217 OFFCURVE",
"122 -45 OFFCURVE",
"219 12 CURVE SMOOTH",
"256 34 OFFCURVE",
"235 91 OFFCURVE",
"230 124 CURVE SMOOTH",
"222 174 OFFCURVE",
"210 223 OFFCURVE",
"199 273 CURVE",
"237 299 OFFCURVE",
"281 316 OFFCURVE",
"324 333 CURVE SMOOTH",
"352 344 OFFCURVE",
"380 353 OFFCURVE",
"410 356 CURVE SMOOTH",
"437 359 OFFCURVE",
"430 308 OFFCURVE",
"431 292 CURVE SMOOTH",
"435 203 OFFCURVE",
"408 31 OFFCURVE",
"511 -9 CURVE SMOOTH",
"534 -18 OFFCURVE",
"556 1 OFFCURVE",
"564 21 CURVE SMOOTH",
"576 52 OFFCURVE",
"564 80 OFFCURVE",
"561 111 CURVE SMOOTH",
"557 154 OFFCURVE",
"553 196 OFFCURVE",
"550 238 CURVE SMOOTH"
);
}
);
width = 619;
}
);
unicode = 0068;
},
{
glyphname = i;
lastChange = "2013-04-17 12:23:21 +0000";
layers = (
{
layerId = "A6F8BADE-1492-427D-9C9D-3E9580E82F52";
name = Regular;
paths = (
{
closed = 1;
nodes = (
"88 690 OFFCURVE",
"54 675 OFFCURVE",
"54 648 CURVE SMOOTH",
"53 613 OFFCURVE",
"50 578 OFFCURVE",
"50 543 CURVE SMOOTH",
"50 506 OFFCURVE",
"47 464 OFFCURVE",
"76 436 CURVE SMOOTH",
"93 419 OFFCURVE",
"122 418 OFFCURVE",
"139 436 CURVE SMOOTH",
"172 470 OFFCURVE",
"161 515 OFFCURVE",
"153 557 CURVE SMOOTH",
"146 596 OFFCURVE",
"136 641 OFFCURVE",
"108 670 CURVE SMOOTH"
);
},
{
closed = 1;
nodes = (
"66 264 OFFCURVE",
"68 221 OFFCURVE",
"71 178 CURVE SMOOTH",
"73 139 OFFCURVE",
"74 92 OFFCURVE",
"100 62 CURVE SMOOTH",
"109 51 OFFCURVE",
"128 46 OFFCURVE",
"142 51 CURVE SMOOTH",
"144 52 OFFCURVE",
"146 52 OFFCURVE",
"148 53 CURVE SMOOTH",
"171 62 OFFCURVE",
"186 79 OFFCURVE",
"187 105 CURVE SMOOTH",
"190 176 OFFCURVE",
"159 251 OFFCURVE",
"138 318 CURVE SMOOTH",
"125 358 OFFCURVE",
"57 353 OFFCURVE",
"61 308 CURVE SMOOTH"
);
}
);
width = 237;
}
);
unicode = 0069;
},
{
glyphname = j;
lastChange = "2013-04-17 12:23:21 +0000";
layers = (
{
layerId = "A6F8BADE-1492-427D-9C9D-3E9580E82F52";
name = Regular;
paths = (
{
closed = 1;
nodes = (
"162 -151 OFFCURVE",
"295 -133 OFFCURVE",
"317 -12 CURVE SMOOTH",
"341 118 OFFCURVE",
"246 234 OFFCURVE",
"213 352 CURVE SMOOTH",
"204 385 OFFCURVE",
"162 375 OFFCURVE",
"158 345 CURVE SMOOTH",
"147 262 OFFCURVE",
"187 174 OFFCURVE",
"206 94 CURVE SMOOTH",
"213 67 OFFCURVE",
"229 -3 OFFCURVE",
"192 -14 CURVE SMOOTH",
"158 -25 OFFCURVE",
"116 -10 OFFCURVE",
"80 -17 CURVE SMOOTH",
"43 -25 OFFCURVE",
"41 -76 OFFCURVE",
"70 -94 CURVE SMOOTH"
);
},
{
closed = 1;
nodes = (
"143 713 OFFCURVE",
"103 698 OFFCURVE",
"102 663 CURVE SMOOTH",
"98 600 OFFCURVE",
"43 490 OFFCURVE",
"113 448 CURVE SMOOTH",
"127 440 OFFCURVE",
"145 440 OFFCURVE",
"159 448 CURVE SMOOTH",
"204 473 OFFCURVE",
"194 528 OFFCURVE",
"195 573 CURVE SMOOTH",
"196 612 OFFCURVE",
"202 662 OFFCURVE",
"169 690 CURVE SMOOTH"
);
}
);
width = 371;
}
);
unicode = 006A;
},
{
glyphname = k;
lastChange = "2013-04-17 12:23:21 +0000";
layers = (
{
anchors = (
{
name = bottom;
position = "{262, 0}";
}
);
layerId = "A6F8BADE-1492-427D-9C9D-3E9580E82F52";
name = Regular;
paths = (
{
closed = 1;
nodes = (
"389 203 OFFCURVE",
"347 210 OFFCURVE",
"303 210 CURVE",
"311 220 OFFCURVE",
"318 229 OFFCURVE",
"324 239 CURVE SMOOTH",
"364 294 OFFCURVE",
"396 355 OFFCURVE",
"411 422 CURVE SMOOTH",
"419 454 OFFCURVE",
"370 478 OFFCURVE",
"355 445 CURVE SMOOTH",
"330 389 OFFCURVE",
"291 342 OFFCURVE",
"251 295 CURVE SMOOTH",
"230 271 OFFCURVE",
"205 250 OFFCURVE",
"184 226 CURVE",
"182 248 OFFCURVE",
"178 271 OFFCURVE",
"175 293 CURVE SMOOTH",
"160 401 OFFCURVE",
"156 520 OFFCURVE",
"110 621 CURVE SMOOTH",
"94 657 OFFCURVE",
"45 630 OFFCURVE",
"50 596 CURVE SMOOTH",
"60 543 OFFCURVE",
"57 485 OFFCURVE",
"60 431 CURVE SMOOTH",
"63 374 OFFCURVE",
"66 316 OFFCURVE",
"70 259 CURVE SMOOTH",
"75 203 OFFCURVE",
"77 147 OFFCURVE",
"78 91 CURVE SMOOTH",
"79 46 OFFCURVE",
"81 -5 OFFCURVE",
"118 -36 CURVE SMOOTH",
"142 -55 OFFCURVE",
"176 -49 OFFCURVE",
"186 -18 CURVE SMOOTH",
"197 20 OFFCURVE",
"193 67 OFFCURVE",
"192 108 CURVE",
"240 101 OFFCURVE",
"300 108 OFFCURVE",
"328 103 CURVE SMOOTH",
"377 95 OFFCURVE",
"412 60 OFFCURVE",
"445 25 CURVE SMOOTH",
"477 -10 OFFCURVE",
"503 -59 OFFCURVE",
"557 -55 CURVE SMOOTH",
"574 -54 OFFCURVE",
"592 -44 OFFCURVE",
"595 -26 CURVE SMOOTH",
"612 60 OFFCURVE",
"498 152 OFFCURVE",
"429 184 CURVE SMOOTH"
);
}
);
width = 647;
}
);
unicode = 006B;
},
{
glyphname = l;
lastChange = "2013-04-17 12:23:21 +0000";
layers = (
{
anchors = (
{
name = bottom;
position = "{233, 0}";
},
{
name = top;
position = "{233, 250}";
},
{
name = topright;
position = "{713, 250}";
}
);
layerId = "A6F8BADE-1492-427D-9C9D-3E9580E82F52";
name = Regular;
paths = (
{
closed = 1;
nodes = (
"210 619 OFFCURVE",
"159 632 OFFCURVE",
"153 596 CURVE SMOOTH",
"129 450 OFFCURVE",
"48 313 OFFCURVE",
"50 164 CURVE SMOOTH",
"52 20 OFFCURVE",
"202 -87 OFFCURVE",
"337 -60 CURVE SMOOTH",
"377 -52 OFFCURVE",
"383 7 OFFCURVE",
"349 25 CURVE SMOOTH",
"305 49 OFFCURVE",
"257 62 OFFCURVE",
"215 88 CURVE SMOOTH",
"166 120 OFFCURVE",
"164 192 OFFCURVE",
"172 243 CURVE SMOOTH",
"189 357 OFFCURVE",
"225 471 OFFCURVE",
"213 588 CURVE SMOOTH"
);
}
);
width = 421;
}
);
unicode = 006C;
},
{
glyphname = m;
lastChange = "2013-04-17 12:23:21 +0000";
layers = (
{
layerId = "A6F8BADE-1492-427D-9C9D-3E9580E82F52";
name = Regular;
paths = (
{
closed = 1;
nodes = (
"678 352 OFFCURVE",
"661 420 OFFCURVE",
"603 452 CURVE SMOOTH",
"547 484 OFFCURVE",
"473 452 OFFCURVE",
"423 422 CURVE SMOOTH",
"403 410 OFFCURVE",
"377 391 OFFCURVE",
"354 369 CURVE",
"351 375 OFFCURVE",
"347 380 OFFCURVE",
"343 385 CURVE SMOOTH",
"284 466 OFFCURVE",
"193 423 OFFCURVE",
"141 355 CURVE",
"131 374 OFFCURVE",
"119 393 OFFCURVE",
"102 409 CURVE SMOOTH",
"78 432 OFFCURVE",
"35 401 OFFCURVE",
"55 372 CURVE SMOOTH",
"125 271 OFFCURVE",
"54 86 OFFCURVE",
"170 13 CURVE SMOOTH",
"192 -1 OFFCURVE",
"228 17 OFFCURVE",
"226 45 CURVE SMOOTH",
"220 107 OFFCURVE",
"194 173 OFFCURVE",
"178 234 CURVE SMOOTH",
"174 250 OFFCURVE",
"170 266 OFFCURVE",
"166 282 CURVE",
"190 307 OFFCURVE",
"226 330 OFFCURVE",
"254 332 CURVE SMOOTH",
"270 333 OFFCURVE",
"285 225 OFFCURVE",
"288 210 CURVE SMOOTH",
"304 126 OFFCURVE",
"344 8 OFFCURVE",
"428 -27 CURVE SMOOTH",
"454 -38 OFFCURVE",
"475 -12 OFFCURVE",
"477 10 CURVE SMOOTH",
"485 75 OFFCURVE",
"428 144 OFFCURVE",
"408 205 CURVE SMOOTH",
"399 233 OFFCURVE",
"393 263 OFFCURVE",
"384 293 CURVE",
"411 312 OFFCURVE",
"450 328 OFFCURVE",
"472 340 CURVE SMOOTH",
"490 350 OFFCURVE",
"511 355 OFFCURVE",
"532 359 CURVE SMOOTH",
"563 367 OFFCURVE",
"565 328 OFFCURVE",
"567 307 CURVE SMOOTH",
"579 210 OFFCURVE",
"553 89 OFFCURVE",
"634 15 CURVE SMOOTH",
"684 -30 OFFCURVE",
"746 26 OFFCURVE",
"722 83 CURVE SMOOTH",
"693 151 OFFCURVE",
"692 217 OFFCURVE",
"685 290 CURVE SMOOTH"
);
}
);
width = 777;
}
);
unicode = 006D;
},
{
glyphname = n;
lastChange = "2013-04-17 12:23:21 +0000";
layers = (
{
anchors = (
{
name = bottom;
position = "{350, 0}";
},
{
name = top;
position = "{350, 250}";
}
);
layerId = "A6F8BADE-1492-427D-9C9D-3E9580E82F52";
name = Regular;
paths = (
{
closed = 1;
nodes = (
"167 12 OFFCURVE",
"187 21 OFFCURVE",
"192 41 CURVE SMOOTH",
"207 99 OFFCURVE",
"175 177 OFFCURVE",
"167 236 CURVE SMOOTH",
"165 245 OFFCURVE",
"164 254 OFFCURVE",
"163 264 CURVE",
"192 302 OFFCURVE",
"237 335 OFFCURVE",
"274 363 CURVE SMOOTH",
"295 379 OFFCURVE",
"318 390 OFFCURVE",
"342 400 CURVE SMOOTH",
"352 403 OFFCURVE",
"359 320 OFFCURVE",
"359 314 CURVE SMOOTH",
"365 252 OFFCURVE",
"375 189 OFFCURVE",
"401 132 CURVE SMOOTH",
"426 78 OFFCURVE",
"462 9 OFFCURVE",
"525 -4 CURVE SMOOTH",
"551 -10 OFFCURVE",
"575 8 OFFCURVE",
"576 35 CURVE SMOOTH",
"578 73 OFFCURVE",
"559 104 OFFCURVE",
"540 135 CURVE SMOOTH",
"520 170 OFFCURVE",
"503 205 OFFCURVE",
"492 244 CURVE SMOOTH",
"468 323 OFFCURVE",
"473 404 OFFCURVE",
"417 471 CURVE SMOOTH",
"345 557 OFFCURVE",
"221 454 OFFCURVE",
"142 367 CURVE",
"134 393 OFFCURVE",
"125 418 OFFCURVE",
"112 442 CURVE SMOOTH",
"93 475 OFFCURVE",
"42 452 OFFCURVE",
"51 416 CURVE SMOOTH",
"71 339 OFFCURVE",
"66 257 OFFCURVE",
"72 178 CURVE SMOOTH",
"76 123 OFFCURVE",
"81 30 OFFCURVE",
"149 16 CURVE SMOOTH"
);
}
);
width = 626;
}
);
unicode = 006E;
},
{
glyphname = o;
lastChange = "2013-04-17 12:23:21 +0000";
layers = (
{
anchors = (
{
name = top;
position = "{295, 250}";
}
);
layerId = "A6F8BADE-1492-427D-9C9D-3E9580E82F52";
name = Regular;
paths = (
{
closed = 1;
nodes = (
"317 398 OFFCURVE",
"311 437 OFFCURVE",
"287 437 CURVE SMOOTH",
"172 433 OFFCURVE",
"79 363 OFFCURVE",
"54 250 CURVE SMOOTH",
"25 120 OFFCURVE",
"151 18 OFFCURVE",
"268 3 CURVE SMOOTH",
"391 -12 OFFCURVE",
"531 61 OFFCURVE",
"564 184 CURVE SMOOTH",
"596 304 OFFCURVE",
"491 411 OFFCURVE",
"372 380 CURVE SMOOTH",
"338 371 OFFCURVE",
"335 327 OFFCURVE",
"363 309 CURVE SMOOTH",
"410 277 OFFCURVE",
"467 275 OFFCURVE",
"448 202 CURVE SMOOTH",
"431 137 OFFCURVE",
"325 107 OFFCURVE",
"267 117 CURVE SMOOTH",
"197 128 OFFCURVE",
"133 179 OFFCURVE",
"146 255 CURVE SMOOTH",
"158 332 OFFCURVE",
"220 381 OFFCURVE",
"293 394 CURVE SMOOTH"
);
}
);
width = 620;
}
);
unicode = 006F;
},
{
glyphname = p;
lastChange = "2013-04-17 12:23:21 +0000";
layers = (
{
layerId = "A6F8BADE-1492-427D-9C9D-3E9580E82F52";
name = Regular;
paths = (
{
closed = 1;
nodes = (
"112 332 OFFCURVE",
"125 213 OFFCURVE",
"144 90 CURVE SMOOTH",
"157 9 OFFCURVE",
"190 -135 OFFCURVE",
"299 -124 CURVE SMOOTH",
"326 -122 OFFCURVE",
"347 -94 OFFCURVE",
"331 -69 CURVE SMOOTH",
"309 -34 OFFCURVE",
"285 -7 OFFCURVE",
"271 33 CURVE SMOOTH",
"266 45 OFFCURVE",
"263 57 OFFCURVE",
"259 69 CURVE",
"320 55 OFFCURVE",
"392 71 OFFCURVE",
"445 95 CURVE SMOOTH",
"537 138 OFFCURVE",
"602 216 OFFCURVE",
"581 322 CURVE SMOOTH",
"561 421 OFFCURVE",
"454 483 OFFCURVE",
"361 490 CURVE SMOOTH",
"297 495 OFFCURVE",
"204 476 OFFCURVE",
"145 431 CURVE",
"136 447 OFFCURVE",
"126 464 OFFCURVE",
"114 480 CURVE SMOOTH",
"89 517 OFFCURVE",
"34 485 OFFCURVE",
"55 445 CURVE SMOOTH"
);
},
{
closed = 1;
nodes = (
"392 386 OFFCURVE",
"452 354 OFFCURVE",
"473 292 CURVE SMOOTH",
"491 237 OFFCURVE",
"408 203 OFFCURVE",
"370 191 CURVE SMOOTH",
"323 176 OFFCURVE",
"278 183 OFFCURVE",
"232 182 CURVE",
"232 184 OFFCURVE",
"231 185 OFFCURVE",
"231 186 CURVE SMOOTH",
"218 244 OFFCURVE",
"204 298 OFFCURVE",
"184 350 CURVE",
"221 375 OFFCURVE",
"291 384 OFFCURVE",
"329 385 CURVE SMOOTH"
);
}
);
width = 635;
}
);
unicode = 0070;
},
{
glyphname = q;
lastChange = "2013-04-17 12:23:21 +0000";
layers = (
{
layerId = "A6F8BADE-1492-427D-9C9D-3E9580E82F52";
name = Regular;
paths = (
{
closed = 1;
nodes = (
"264 -63 OFFCURVE",
"265 -106 OFFCURVE",
"284 -137 CURVE",
"284 -147 OFFCURVE",
"288 -157 OFFCURVE",
"296 -164 CURVE SMOOTH",
"329 -192 OFFCURVE",
"372 -179 OFFCURVE",
"410 -169 CURVE SMOOTH",
"455 -157 OFFCURVE",
"510 -154 OFFCURVE",
"544 -118 CURVE SMOOTH",
"568 -93 OFFCURVE",
"559 -48 OFFCURVE",
"523 -39 CURVE SMOOTH",
"484 -29 OFFCURVE",
"444 -44 OFFCURVE",
"407 -57 CURVE SMOOTH",
"397 -61 OFFCURVE",
"386 -65 OFFCURVE",
"376 -70 CURVE",
"375 -48 OFFCURVE",
"372 -27 OFFCURVE",
"370 -9 CURVE SMOOTH",
"367 24 OFFCURVE",
"363 57 OFFCURVE",
"353 87 CURVE",
"376 91 OFFCURVE",
"399 98 OFFCURVE",
"420 107 CURVE SMOOTH",
"519 152 OFFCURVE",
"590 284 OFFCURVE",
"478 359 CURVE SMOOTH",
"447 380 OFFCURVE",
"414 346 OFFCURVE",
"420 315 CURVE SMOOTH",
"426 286 OFFCURVE",
"431 266 OFFCURVE",
"414 240 CURVE SMOOTH",
"401 219 OFFCURVE",
"368 210 OFFCURVE",
"346 203 CURVE SMOOTH",
"291 186 OFFCURVE",
"217 192 OFFCURVE",
"171 230 CURVE SMOOTH",
"114 278 OFFCURVE",
"173 353 OFFCURVE",
"217 384 CURVE SMOOTH",
"262 414 OFFCURVE",
"356 424 OFFCURVE",
"400 387 CURVE SMOOTH",
"428 364 OFFCURVE",
"469 403 OFFCURVE",
"441 428 CURVE SMOOTH",
"363 497 OFFCURVE",
"248 497 OFFCURVE",
"160 449 CURVE SMOOTH",
"61 395 OFFCURVE",
"11 259 OFFCURVE",
"86 166 CURVE SMOOTH",
"128 114 OFFCURVE",
"194 87 OFFCURVE",
"261 82 CURVE",
"262 45 OFFCURVE",
"263 9 OFFCURVE",
"264 -27 CURVE SMOOTH"
);
}
);
width = 607;
}
);
unicode = 0071;
},
{
glyphname = r;
lastChange = "2013-04-17 12:23:21 +0000";
layers = (
{
anchors = (
{
name = bottom;
position = "{307, 0}";
},
{
name = top;
position = "{307, 250}";
}
);
layerId = "A6F8BADE-1492-427D-9C9D-3E9580E82F52";
name = Regular;
paths = (
{
closed = 1;
nodes = (
"279 496 OFFCURVE",
"211 436 OFFCURVE",
"156 372 CURVE",
"145 394 OFFCURVE",
"132 416 OFFCURVE",
"118 438 CURVE SMOOTH",
"92 476 OFFCURVE",
"31 442 OFFCURVE",
"56 402 CURVE SMOOTH",
"101 329 OFFCURVE",
"106 252 OFFCURVE",
"117 168 CURVE SMOOTH",
"124 111 OFFCURVE",
"123 20 OFFCURVE",
"183 -10 CURVE SMOOTH",
"203 -20 OFFCURVE",
"233 -13 OFFCURVE",
"238 12 CURVE SMOOTH",
"244 41 OFFCURVE",
"237 65 OFFCURVE",
"230 94 CURVE SMOOTH",
"221 134 OFFCURVE",
"214 176 OFFCURVE",
"205 217 CURVE SMOOTH",
"201 240 OFFCURVE",
"195 263 OFFCURVE",
"189 285 CURVE",
"221 317 OFFCURVE",
"256 346 OFFCURVE",
"293 371 CURVE SMOOTH",
"300 376 OFFCURVE",
"345 403 OFFCURVE",
"352 398 CURVE SMOOTH",
"367 385 OFFCURVE",
"372 357 OFFCURVE",
"380 340 CURVE SMOOTH",
"398 299 OFFCURVE",
"423 237 OFFCURVE",
"471 224 CURVE SMOOTH",
"522 210 OFFCURVE",
"555 261 OFFCURVE",
"533 304 CURVE SMOOTH",
"504 365 OFFCURVE",
"452 514 OFFCURVE",
"363 505 CURVE SMOOTH"
);
}
);
width = 590;
}
);
unicode = 0072;
},
{
glyphname = s;
lastChange = "2013-04-17 12:23:21 +0000";
layers = (
{
anchors = (
{
name = bottom;
position = "{309, 0}";
},
{
name = top;
position = "{309, 250}";
}
);
layerId = "A6F8BADE-1492-427D-9C9D-3E9580E82F52";
name = Regular;
paths = (
{
closed = 1;
nodes = (
"196 99 OFFCURVE",
"102 94 OFFCURVE",
"72 37 CURVE SMOOTH",
"61 17 OFFCURVE",
"68 -3 OFFCURVE",
"86 -16 CURVE SMOOTH",
"130 -49 OFFCURVE",
"200 -22 OFFCURVE",
"248 -11 CURVE SMOOTH",
"303 3 OFFCURVE",
"362 15 OFFCURVE",
"414 40 CURVE SMOOTH",
"453 59 OFFCURVE",
"494 85 OFFCURVE",
"503 132 CURVE SMOOTH",
"511 179 OFFCURVE",
"482 214 OFFCURVE",
"444 238 CURVE SMOOTH",
"366 287 OFFCURVE",
"266 286 OFFCURVE",
"183 325 CURVE SMOOTH",
"102 362 OFFCURVE",
"189 423 OFFCURVE",
"235 435 CURVE SMOOTH",
"275 446 OFFCURVE",
"318 440 OFFCURVE",
"356 424 CURVE",
"349 405 OFFCURVE",
"345 385 OFFCURVE",
"345 366 CURVE SMOOTH",
"345 306 OFFCURVE",
"443 289 OFFCURVE",
"453 352 CURVE SMOOTH",
"465 420 OFFCURVE",
"527 496 OFFCURVE",
"492 565 CURVE SMOOTH",
"484 581 OFFCURVE",
"457 585 OFFCURVE",
"445 571 CURVE SMOOTH",
"425 545 OFFCURVE",
"400 513 OFFCURVE",
"381 478 CURVE",
"315 519 OFFCURVE",
"234 529 OFFCURVE",
"159 501 CURVE SMOOTH",
"46 459 OFFCURVE",
"9 328 OFFCURVE",
"105 247 CURVE SMOOTH",
"179 186 OFFCURVE",
"288 188 OFFCURVE",
"373 148 CURVE",
"366 145 OFFCURVE",
"360 143 OFFCURVE",
"353 140 CURVE SMOOTH",
"321 128 OFFCURVE",
"286 121 OFFCURVE",
"252 113 CURVE SMOOTH"
);
}
);
width = 554;
}
);
unicode = 0073;
},
{
glyphname = t;
lastChange = "2013-04-17 12:23:21 +0000";
layers = (
{
anchors = (
{
name = bottom;
position = "{285, 0}";
},
{
name = center;
position = "{285, 125}";
}
);
layerId = "A6F8BADE-1492-427D-9C9D-3E9580E82F52";
name = Regular;
paths = (
{
closed = 1;
nodes = (
"29 350 OFFCURVE",
"50 280 OFFCURVE",
"98 288 CURVE SMOOTH",
"109 290 OFFCURVE",
"119 292 OFFCURVE",
"130 294 CURVE",
"131 228 OFFCURVE",
"139 162 OFFCURVE",
"166 101 CURVE SMOOTH",
"207 3 OFFCURVE",
"336 -96 OFFCURVE",
"435 -7 CURVE SMOOTH",
"453 9 OFFCURVE",
"448 42 OFFCURVE",
"427 53 CURVE SMOOTH",
"393 73 OFFCURVE",
"353 70 OFFCURVE",
"318 87 CURVE SMOOTH",
"282 105 OFFCURVE",
"265 147 OFFCURVE",
"252 182 CURVE SMOOTH",
"238 222 OFFCURVE",
"232 264 OFFCURVE",
"228 307 CURVE",
"236 307 OFFCURVE",
"244 308 OFFCURVE",
"252 308 CURVE SMOOTH",
"298 311 OFFCURVE",
"354 321 OFFCURVE",
"399 313 CURVE SMOOTH",
"465 300 OFFCURVE",
"488 388 OFFCURVE",
"427 412 CURVE SMOOTH",
"378 431 OFFCURVE",
"307 409 OFFCURVE",
"257 402 CURVE SMOOTH",
"244 400 OFFCURVE",
"231 398 OFFCURVE",
"218 395 CURVE",
"214 426 OFFCURVE",
"208 457 OFFCURVE",
"198 487 CURVE SMOOTH",
"186 522 OFFCURVE",
"131 517 OFFCURVE",
"131 478 CURVE SMOOTH",
"131 444 OFFCURVE",
"130 409 OFFCURVE",
"130 375 CURVE",
"112 371 OFFCURVE",
"95 366 OFFCURVE",
"78 362 CURVE SMOOTH"
);
}
);
width = 513;
}
);
unicode = 0074;
},
{
glyphname = u;
lastChange = "2013-04-17 12:23:21 +0000";
layers = (
{
anchors = (
{
name = ogonek;
position = "{644, 10}";
},
{
name = top;
position = "{244, 250}";
}
);
layerId = "A6F8BADE-1492-427D-9C9D-3E9580E82F52";
name = Regular;
paths = (
{
closed = 1;
nodes = (
"47 312 OFFCURVE",
"28 178 OFFCURVE",
"97 97 CURVE SMOOTH",
"151 34 OFFCURVE",
"265 -8 OFFCURVE",
"346 24 CURVE SMOOTH",
"346 25 OFFCURVE",
"347 25 OFFCURVE",
"348 25 CURVE",
"352 17 OFFCURVE",
"356 9 OFFCURVE",
"361 2 CURVE SMOOTH",
"388 -39 OFFCURVE",
"442 -20 OFFCURVE",
"447 25 CURVE SMOOTH",
"453 75 OFFCURVE",
"438 126 OFFCURVE",
"431 175 CURVE SMOOTH",
"423 225 OFFCURVE",
"411 275 OFFCURVE",
"404 325 CURVE SMOOTH",
"401 343 OFFCURVE",
"363 504 OFFCURVE",
"316 450 CURVE SMOOTH",
"298 429 OFFCURVE",
"305 406 OFFCURVE",
"304 381 CURVE SMOOTH",
"304 340 OFFCURVE",
"309 297 OFFCURVE",
"311 256 CURVE SMOOTH",
"314 214 OFFCURVE",
"315 164 OFFCURVE",
"322 117 CURVE",
"273 128 OFFCURVE",
"218 128 OFFCURVE",
"178 161 CURVE SMOOTH",
"120 208 OFFCURVE",
"128 330 OFFCURVE",
"135 398 CURVE SMOOTH",
"138 431 OFFCURVE",
"88 434 OFFCURVE",
"78 405 CURVE SMOOTH"
);
}
);
width = 498;
}
);
unicode = 0075;
},
{
glyphname = v;
lastChange = "2013-04-17 12:23:21 +0000";
layers = (
{
layerId = "A6F8BADE-1492-427D-9C9D-3E9580E82F52";
name = Regular;
paths = (
{
closed = 1;
nodes = (
"101 314 OFFCURVE",
"133 249 OFFCURVE",
"165 187 CURVE SMOOTH",
"196 127 OFFCURVE",
"215 58 OFFCURVE",
"250 1 CURVE",
"270 -40 OFFCURVE",
"337 -28 OFFCURVE",
"346 13 CURVE",
"347 15 OFFCURVE",
"348 16 OFFCURVE",
"349 17 CURVE SMOOTH",
"368 47 OFFCURVE",
"371 79 OFFCURVE",
"379 113 CURVE SMOOTH",
"389 156 OFFCURVE",
"408 198 OFFCURVE",
"426 238 CURVE SMOOTH",
"452 296 OFFCURVE",
"495 363 OFFCURVE",
"499 428 CURVE SMOOTH",
"501 464 OFFCURVE",
"453 471 OFFCURVE",
"435 445 CURVE SMOOTH",
"394 383 OFFCURVE",
"353 325 OFFCURVE",
"319 258 CURVE SMOOTH",
"307 235 OFFCURVE",
"293 207 OFFCURVE",
"281 178 CURVE",
"272 192 OFFCURVE",
"263 206 OFFCURVE",
"255 219 CURVE SMOOTH",
"210 290 OFFCURVE",
"162 356 OFFCURVE",
"98 410 CURVE SMOOTH",
"69 435 OFFCURVE",
"34 399 OFFCURVE",
"57 370 CURVE SMOOTH"
);
}
);
width = 549;
}
);
unicode = 0076;
},
{
glyphname = w;
lastChange = "2013-04-17 12:23:21 +0000";
layers = (
{
anchors = (
{
name = top;
position = "{419, 250}";
}
);
layerId = "A6F8BADE-1492-427D-9C9D-3E9580E82F52";
name = Regular;
paths = (
{
closed = 1;
nodes = (
"609 389 OFFCURVE",
"577 311 OFFCURVE",
"546 241 CURVE SMOOTH",
"527 199 OFFCURVE",
"508 155 OFFCURVE",
"497 111 CURVE",
"482 140 OFFCURVE",
"464 170 OFFCURVE",
"451 194 CURVE SMOOTH",
"433 229 OFFCURVE",
"415 280 OFFCURVE",
"379 303 CURVE",
"366 315 OFFCURVE",
"343 321 OFFCURVE",
"325 313 CURVE SMOOTH",
"281 295 OFFCURVE",
"258 225 OFFCURVE",
"239 184 CURVE SMOOTH",
"236 176 OFFCURVE",
"233 168 OFFCURVE",
"230 160 CURVE",
"223 176 OFFCURVE",
"217 191 OFFCURVE",
"210 206 CURVE SMOOTH",
"184 266 OFFCURVE",
"145 314 OFFCURVE",
"105 366 CURVE SMOOTH",
"81 397 OFFCURVE",
"38 357 OFFCURVE",
"53 325 CURVE SMOOTH",
"83 263 OFFCURVE",
"112 203 OFFCURVE",
"138 139 CURVE SMOOTH",
"157 91 OFFCURVE",
"169 23 OFFCURVE",
"210 -13 CURVE SMOOTH",
"237 -37 OFFCURVE",
"281 -28 OFFCURVE",
"292 9 CURVE SMOOTH",
"304 51 OFFCURVE",
"304 94 OFFCURVE",
"322 135 CURVE SMOOTH",
"331 156 OFFCURVE",
"341 176 OFFCURVE",
"351 196 CURVE",
"362 166 OFFCURVE",
"371 134 OFFCURVE",
"381 107 CURVE SMOOTH",
"400 52 OFFCURVE",
"422 -11 OFFCURVE",
"487 -18 CURVE SMOOTH",
"499 -19 OFFCURVE",
"510 -12 OFFCURVE",
"517 -2 CURVE",
"520 0 OFFCURVE",
"523 2 OFFCURVE",
"525 6 CURVE SMOOTH",
"556 77 OFFCURVE",
"595 143 OFFCURVE",
"635 209 CURVE SMOOTH",
"675 273 OFFCURVE",
"724 356 OFFCURVE",
"716 434 CURVE SMOOTH",
"712 468 OFFCURVE",
"673 480 OFFCURVE",
"652 452 CURVE SMOOTH"
);
}
);
width = 767;
}
);
unicode = 0077;
},
{
glyphname = x;
lastChange = "2013-04-17 12:23:21 +0000";
layers = (
{
layerId = "A6F8BADE-1492-427D-9C9D-3E9580E82F52";
name = Regular;
paths = (
{
closed = 1;
nodes = (
"69 11 OFFCURVE",
"95 -23 OFFCURVE",
"129 -12 CURVE SMOOTH",
"189 8 OFFCURVE",
"234 69 OFFCURVE",
"274 122 CURVE",
"285 108 OFFCURVE",
"296 94 OFFCURVE",
"307 80 CURVE SMOOTH",
"339 42 OFFCURVE",
"379 1 OFFCURVE",
"427 -16 CURVE SMOOTH",
"464 -30 OFFCURVE",
"519 -31 OFFCURVE",
"532 15 CURVE SMOOTH",
"544 60 OFFCURVE",
"487 79 OFFCURVE",
"459 97 CURVE SMOOTH",
"414 125 OFFCURVE",
"379 168 OFFCURVE",
"343 206 CURVE SMOOTH",
"343 207 OFFCURVE",
"342 208 OFFCURVE",
"341 209 CURVE",
"377 258 OFFCURVE",
"411 309 OFFCURVE",
"447 357 CURVE SMOOTH",
"473 392 OFFCURVE",
"421 421 OFFCURVE",
"393 400 CURVE SMOOTH",
"348 365 OFFCURVE",
"308 325 OFFCURVE",
"270 283 CURVE",
"215 337 OFFCURVE",
"151 388 OFFCURVE",
"80 396 CURVE SMOOTH",
"44 399 OFFCURVE",
"39 345 OFFCURVE",
"71 335 CURVE SMOOTH",
"100 327 OFFCURVE",
"124 294 OFFCURVE",
"144 273 CURVE SMOOTH",
"164 252 OFFCURVE",
"184 231 OFFCURVE",
"204 210 CURVE SMOOTH",
"204 209 OFFCURVE",
"204 209 OFFCURVE",
"205 209 CURVE",
"184 185 OFFCURVE",
"163 162 OFFCURVE",
"142 140 CURVE SMOOTH",
"113 110 OFFCURVE",
"83 83 OFFCURVE",
"75 42 CURVE SMOOTH"
);
}
);
width = 584;
}
);
unicode = 0078;
},
{
glyphname = y;
lastChange = "2013-04-17 12:23:21 +0000";
layers = (
{
anchors = (
{
name = top;
position = "{305, 250}";
}
);
layerId = "A6F8BADE-1492-427D-9C9D-3E9580E82F52";
name = Regular;
paths = (
{
closed = 1;
nodes = (
"91 -118 OFFCURVE",
"101 -167 OFFCURVE",
"132 -175 CURVE SMOOTH",
"261 -210 OFFCURVE",
"384 -122 OFFCURVE",
"413 3 CURVE SMOOTH",
"446 148 OFFCURVE",
"419 304 OFFCURVE",
"484 442 CURVE SMOOTH",
"497 471 OFFCURVE",
"460 506 OFFCURVE",
"436 479 CURVE SMOOTH",
"362 392 OFFCURVE",
"340 280 OFFCURVE",
"326 170 CURVE",
"305 178 OFFCURVE",
"283 182 OFFCURVE",
"265 196 CURVE SMOOTH",
"238 218 OFFCURVE",
"223 265 OFFCURVE",
"212 297 CURVE SMOOTH",
"188 365 OFFCURVE",
"154 415 OFFCURVE",
"109 469 CURVE SMOOTH",
"85 499 OFFCURVE",
"33 459 OFFCURVE",
"56 428 CURVE SMOOTH",
"84 388 OFFCURVE",
"103 353 OFFCURVE",
"115 305 CURVE SMOOTH",
"126 265 OFFCURVE",
"132 224 OFFCURVE",
"149 186 CURVE SMOOTH",
"178 123 OFFCURVE",
"244 58 OFFCURVE",
"316 76 CURVE",
"311 39 OFFCURVE",
"302 2 OFFCURVE",
"280 -25 CURVE SMOOTH",
"243 -72 OFFCURVE",
"175 -80 OFFCURVE",
"123 -103 CURVE SMOOTH"
);
}
);
width = 537;
}
);
unicode = 0079;
},
{
glyphname = z;
lastChange = "2013-04-17 12:23:21 +0000";
layers = (
{
anchors = (
{
name = top;
position = "{265, 250}";
}
);
layerId = "A6F8BADE-1492-427D-9C9D-3E9580E82F52";
name = Regular;
paths = (
{
closed = 1;
nodes = (
"66 35 OFFCURVE",
"74 15 OFFCURVE",
"89 6 CURVE",
"105 -8 OFFCURVE",
"126 -10 OFFCURVE",
"149 -13 CURVE SMOOTH",
"193 -18 OFFCURVE",
"237 -25 OFFCURVE",
"280 -33 CURVE SMOOTH",
"323 -42 OFFCURVE",
"365 -50 OFFCURVE",
"408 -59 CURVE SMOOTH",
"449 -68 OFFCURVE",
"480 -76 OFFCURVE",
"520 -58 CURVE SMOOTH",
"528 -55 OFFCURVE",
"534 -48 OFFCURVE",
"537 -41 CURVE",
"545 -33 OFFCURVE",
"550 -22 OFFCURVE",
"549 -8 CURVE SMOOTH",
"548 36 OFFCURVE",
"532 80 OFFCURVE",
"523 123 CURVE SMOOTH",
"516 160 OFFCURVE",
"502 200 OFFCURVE",
"479 229 CURVE SMOOTH",
"457 256 OFFCURVE",
"415 232 OFFCURVE",
"415 203 CURVE SMOOTH",
"414 167 OFFCURVE",
"421 131 OFFCURVE",
"425 95 CURVE SMOOTH",
"427 82 OFFCURVE",
"428 68 OFFCURVE",
"430 55 CURVE",
"427 55 OFFCURVE",
"424 56 OFFCURVE",
"420 56 CURVE SMOOTH",
"379 64 OFFCURVE",
"337 71 OFFCURVE",
"295 74 CURVE SMOOTH",
"272 76 OFFCURVE",
"241 79 OFFCURVE",
"210 80 CURVE",
"234 113 OFFCURVE",
"256 150 OFFCURVE",
"278 180 CURVE SMOOTH",
"335 256 OFFCURVE",
"384 337 OFFCURVE",
"419 426 CURVE SMOOTH",
"428 449 OFFCURVE",
"407 466 OFFCURVE",
"387 467 CURVE",
"335 476 OFFCURVE",
"285 462 OFFCURVE",
"233 454 CURVE SMOOTH",
"220 451 OFFCURVE",
"118 438 OFFCURVE",
"112 453 CURVE SMOOTH",
"101 479 OFFCURVE",
"59 486 OFFCURVE",
"52 453 CURVE SMOOTH",
"30 353 OFFCURVE",
"174 345 OFFCURVE",
"285 365 CURVE",
"259 329 OFFCURVE",
"234 292 OFFCURVE",
"206 258 CURVE SMOOTH",
"160 201 OFFCURVE",
"79 129 OFFCURVE",
"68 53 CURVE SMOOTH"
);
}
);
width = 599;
}
);
unicode = 007A;
},
{
glyphname = zero;
lastChange = "2013-04-17 12:24:55 +0000";
layers = (
{
layerId = "A6F8BADE-1492-427D-9C9D-3E9580E82F52";
name = Regular;
paths = (
{
closed = 1;
nodes = (
"593 390 OFFCURVE",
"601 412 OFFCURVE",
"586 423 CURVE SMOOTH",
"564 440 OFFCURVE",
"538 465 OFFCURVE",
"511 473 CURVE SMOOTH",
"470 486 OFFCURVE",
"428 492 OFFCURVE",
"386 495 CURVE SMOOTH",
"367 496 OFFCURVE",
"348 496 OFFCURVE",
"329 495 CURVE",
"319 564 OFFCURVE",
"299 648 OFFCURVE",
"240 646 CURVE SMOOTH",
"216 644 OFFCURVE",
"197 618 OFFCURVE",
"211 596 CURVE SMOOTH",
"228 570 OFFCURVE",
"225 506 OFFCURVE",
"228 476 CURVE SMOOTH",
"228 475 OFFCURVE",
"228 474 OFFCURVE",
"228 473 CURVE",
"207 465 OFFCURVE",
"188 456 OFFCURVE",
"169 445 CURVE SMOOTH",
"40 370 OFFCURVE",
"-2 177 OFFCURVE",
"133 85 CURVE SMOOTH",
"258 -1 OFFCURVE",
"483 18 OFFCURVE",
"599 111 CURVE SMOOTH",
"698 192 OFFCURVE",
"666 324 OFFCURVE",
"579 389 CURVE"
);
},
{
closed = 1;
nodes = (
"240 368 OFFCURVE",
"242 351 OFFCURVE",
"244 334 CURVE SMOOTH",
"252 274 OFFCURVE",
"258 207 OFFCURVE",
"277 146 CURVE",
"249 150 OFFCURVE",
"223 158 OFFCURVE",
"198 170 CURVE SMOOTH",
"94 223 OFFCURVE",
"169 338 OFFCURVE",
"237 385 CURVE"
);
},
{
closed = 1;
nodes = (
"473 165 OFFCURVE",
"431 155 OFFCURVE",
"391 149 CURVE",
"386 180 OFFCURVE",
"378 210 OFFCURVE",
"371 240 CURVE SMOOTH",
"358 300 OFFCURVE",
"348 360 OFFCURVE",
"338 420 CURVE SMOOTH",
"338 422 OFFCURVE",
"338 423 OFFCURVE",
"338 424 CURVE",
"381 433 OFFCURVE",
"428 433 OFFCURVE",
"471 425 CURVE",
"443 418 OFFCURVE",
"429 386 OFFCURVE",
"451 359 CURVE SMOOTH",
"493 310 OFFCURVE",
"607 243 OFFCURVE",
"504 184 CURVE SMOOTH"
);
}
);
width = 710;
}
);
unicode = 0030;
},
{
glyphname = one;
lastChange = "2013-04-17 12:24:55 +0000";
layers = (
{
layerId = "A6F8BADE-1492-427D-9C9D-3E9580E82F52";
name = Regular;
paths = (
{
closed = 1;
nodes = (
"479 89 OFFCURVE",
"428 93 OFFCURVE",
"377 93 CURVE",
"382 168 OFFCURVE",
"362 250 OFFCURVE",
"352 318 CURVE SMOOTH",
"342 392 OFFCURVE",
"341 509 OFFCURVE",
"293 577 CURVE",
"296 597 OFFCURVE",
"285 612 OFFCURVE",
"265 614 CURVE SMOOTH",
"260 615 OFFCURVE",
"255 614 OFFCURVE",
"251 614 CURVE",
"230 619 OFFCURVE",
"208 609 OFFCURVE",
"203 588 CURVE",
"197 583 OFFCURVE",
"191 578 OFFCURVE",
"185 574 CURVE SMOOTH",
"157 552 OFFCURVE",
"130 531 OFFCURVE",
"98 514 CURVE SMOOTH",
"60 494 OFFCURVE",
"94 434 OFFCURVE",
"132 456 CURVE SMOOTH",
"158 471 OFFCURVE",
"185 486 OFFCURVE",
"211 501 CURVE",
"213 489 OFFCURVE",
"216 477 OFFCURVE",
"217 465 CURVE SMOOTH",
"223 411 OFFCURVE",
"230 356 OFFCURVE",
"236 302 CURVE SMOOTH",
"242 254 OFFCURVE",
"248 206 OFFCURVE",
"252 158 CURVE SMOOTH",
"255 134 OFFCURVE",
"256 111 OFFCURVE",
"258 88 CURVE",
"195 84 OFFCURVE",
"129 77 OFFCURVE",
"70 57 CURVE SMOOTH",
"39 47 OFFCURVE",
"46 4 OFFCURVE",
"78 2 CURVE SMOOTH",
"150 -4 OFFCURVE",
"222 -6 OFFCURVE",
"295 -7 CURVE SMOOTH",
"299 -7 OFFCURVE",
"304 -8 OFFCURVE",
"309 -8 CURVE",
"315 -10 OFFCURVE",
"323 -10 OFFCURVE",
"329 -9 CURVE",
"391 -15 OFFCURVE",
"455 -28 OFFCURVE",
"515 -13 CURVE SMOOTH",
"550 -5 OFFCURVE",
"562 53 OFFCURVE",
"525 69 CURVE SMOOTH"
);
}
);
width = 598;
}
);
unicode = 0031;
},
{
glyphname = two;
lastChange = "2013-04-17 12:24:55 +0000";
layers = (
{
layerId = "A6F8BADE-1492-427D-9C9D-3E9580E82F52";
name = Regular;
paths = (
{
closed = 1;
nodes = (
"476 272 OFFCURVE",
"434 276 OFFCURVE",
"419 250 CURVE SMOOTH",
"393 206 OFFCURVE",
"380 146 OFFCURVE",
"380 89 CURVE",
"359 96 OFFCURVE",
"340 101 OFFCURVE",
"328 105 CURVE SMOOTH",
"285 117 OFFCURVE",
"241 124 OFFCURVE",
"196 129 CURVE",
"234 162 OFFCURVE",
"272 194 OFFCURVE",
"311 226 CURVE SMOOTH",
"384 286 OFFCURVE",
"457 353 OFFCURVE",
"469 451 CURVE SMOOTH",
"480 540 OFFCURVE",
"388 607 OFFCURVE",
"312 621 CURVE SMOOTH",
"233 635 OFFCURVE",
"140 608 OFFCURVE",
"84 551 CURVE SMOOTH",
"51 517 OFFCURVE",
"101 468 OFFCURVE",
"135 499 CURVE SMOOTH",
"182 543 OFFCURVE",
"257 549 OFFCURVE",
"316 531 CURVE SMOOTH",
"350 520 OFFCURVE",
"380 484 OFFCURVE",
"373 448 CURVE SMOOTH",
"368 416 OFFCURVE",
"340 390 OFFCURVE",
"318 369 CURVE SMOOTH",
"265 319 OFFCURVE",
"205 277 OFFCURVE",
"149 230 CURVE SMOOTH",
"105 193 OFFCURVE",
"33 142 OFFCURVE",
"54 76 CURVE SMOOTH",
"59 60 OFFCURVE",
"76 49 OFFCURVE",
"93 54 CURVE SMOOTH",
"94 54 OFFCURVE",
"94 55 OFFCURVE",
"95 55 CURVE",
"125 43 OFFCURVE",
"164 40 OFFCURVE",
"189 33 CURVE SMOOTH",
"226 22 OFFCURVE",
"263 12 OFFCURVE",
"299 0 CURVE SMOOTH",
"336 -13 OFFCURVE",
"374 -34 OFFCURVE",
"414 -40 CURVE SMOOTH",
"432 -43 OFFCURVE",
"449 -40 OFFCURVE",
"462 -28 CURVE",
"468 -25 OFFCURVE",
"475 -21 OFFCURVE",
"482 -14 CURVE SMOOTH",
"507 9 OFFCURVE",
"496 42 OFFCURVE",
"492 71 CURVE SMOOTH",
"486 128 OFFCURVE",
"498 186 OFFCURVE",
"483 242 CURVE SMOOTH"
);
}
);
width = 548;
}
);
unicode = 0032;
},
{
glyphname = three;
lastChange = "2013-04-17 12:24:55 +0000";
layers = (
{
layerId = "A6F8BADE-1492-427D-9C9D-3E9580E82F52";
name = Regular;
paths = (
{
closed = 1;
nodes = (
"708 127 OFFCURVE",
"764 159 OFFCURVE",
"763 215 CURVE SMOOTH",
"763 273 OFFCURVE",
"727 309 OFFCURVE",
"676 331 CURVE SMOOTH",
"639 347 OFFCURVE",
"600 350 OFFCURVE",
"560 347 CURVE",
"569 375 OFFCURVE",
"577 404 OFFCURVE",
"587 432 CURVE SMOOTH",
"593 448 OFFCURVE",
"601 463 OFFCURVE",
"608 479 CURVE",
"626 485 OFFCURVE",
"642 494 OFFCURVE",
"653 508 CURVE SMOOTH",
"669 527 OFFCURVE",
"665 548 OFFCURVE",
"646 563 CURVE SMOOTH",
"603 596 OFFCURVE",
"530 573 OFFCURVE",
"480 566 CURVE SMOOTH",
"417 556 OFFCURVE",
"337 530 OFFCURVE",
"274 552 CURVE SMOOTH",
"252 561 OFFCURVE",
"235 543 OFFCURVE",
"233 523 CURVE",
"233 524 OFFCURVE",
"227 457 OFFCURVE",
"234 426 CURVE SMOOTH",
"242 386 OFFCURVE",
"231 348 OFFCURVE",
"270 321 CURVE SMOOTH",
"282 312 OFFCURVE",
"304 312 OFFCURVE",
"316 321 CURVE SMOOTH",
"356 350 OFFCURVE",
"349 391 OFFCURVE",
"338 435 CURVE SMOOTH",
"336 445 OFFCURVE",
"332 455 OFFCURVE",
"328 465 CURVE",
"366 460 OFFCURVE",
"405 462 OFFCURVE",
"441 463 CURVE SMOOTH",
"457 464 OFFCURVE",
"475 464 OFFCURVE",
"495 464 CURVE",
"478 429 OFFCURVE",
"462 393 OFFCURVE",
"453 355 CURVE SMOOTH",
"451 346 OFFCURVE",
"451 338 OFFCURVE",
"452 330 CURVE",
"418 322 OFFCURVE",
"384 309 OFFCURVE",
"357 286 CURVE SMOOTH",
"342 273 OFFCURVE",
"358 248 OFFCURVE",
"376 254 CURVE SMOOTH",
"404 263 OFFCURVE",
"441 258 OFFCURVE",
"470 259 CURVE SMOOTH",
"511 261 OFFCURVE",
"553 262 OFFCURVE",
"594 256 CURVE SMOOTH",
"611 253 OFFCURVE",
"625 248 OFFCURVE",
"641 240 CURVE SMOOTH",
"660 229 OFFCURVE",
"660 227 OFFCURVE",
"643 216 CURVE SMOOTH",
"613 197 OFFCURVE",
"575 183 OFFCURVE",
"540 172 CURVE SMOOTH",
"399 124 OFFCURVE",
"229 154 OFFCURVE",
"117 252 CURVE SMOOTH",
"102 266 OFFCURVE",
"74 266 OFFCURVE",
"63 245 CURVE SMOOTH",
"1 124 OFFCURVE",
"177 71 OFFCURVE",
"262 51 CURVE SMOOTH",
"402 17 OFFCURVE",
"539 40 OFFCURVE",
"666 105 CURVE SMOOTH"
);
}
);
width = 813;
}
);
unicode = 0033;
},
{
glyphname = four;
lastChange = "2013-04-17 12:24:55 +0000";
layers = (
{
layerId = "A6F8BADE-1492-427D-9C9D-3E9580E82F52";
name = Regular;
paths = (
{
closed = 1;
nodes = (
"420 316 OFFCURVE",
"400 322 OFFCURVE",
"379 325 CURVE",
"379 335 OFFCURVE",
"378 345 OFFCURVE",
"378 354 CURVE SMOOTH",
"376 445 OFFCURVE",
"390 549 OFFCURVE",
"358 636 CURVE SMOOTH",
"346 670 OFFCURVE",
"292 667 OFFCURVE",
"293 628 CURVE SMOOTH",
"295 531 OFFCURVE",
"276 433 OFFCURVE",
"274 335 CURVE SMOOTH",
"274 331 OFFCURVE",
"274 327 OFFCURVE",
"273 323 CURVE",
"270 322 OFFCURVE",
"266 322 OFFCURVE",
"262 322 CURVE SMOOTH",
"227 319 OFFCURVE",
"193 314 OFFCURVE",
"159 308 CURVE",
"160 312 OFFCURVE",
"162 316 OFFCURVE",
"163 320 CURVE SMOOTH",
"170 351 OFFCURVE",
"174 385 OFFCURVE",
"176 416 CURVE SMOOTH",
"181 467 OFFCURVE",
"169 530 OFFCURVE",
"125 560 CURVE SMOOTH",
"105 574 OFFCURVE",
"84 548 OFFCURVE",
"94 528 CURVE SMOOTH",
"112 492 OFFCURVE",
"95 431 OFFCURVE",
"85 394 CURVE SMOOTH",
"75 359 OFFCURVE",
"54 326 OFFCURVE",
"50 290 CURVE SMOOTH",
"48 272 OFFCURVE",
"61 256 OFFCURVE",
"75 247 CURVE SMOOTH",
"75 246 OFFCURVE",
"76 246 OFFCURVE",
"77 246 CURVE SMOOTH",
"81 243 OFFCURVE",
"87 241 OFFCURVE",
"93 240 CURVE",
"132 208 OFFCURVE",
"196 221 OFFCURVE",
"243 221 CURVE SMOOTH",
"252 221 OFFCURVE",
"261 221 OFFCURVE",
"271 220 CURVE",
"271 152 OFFCURVE",
"277 83 OFFCURVE",
"306 28 CURVE SMOOTH",
"323 -6 OFFCURVE",
"377 2 OFFCURVE",
"386 38 CURVE SMOOTH",
"398 86 OFFCURVE",
"390 134 OFFCURVE",
"386 183 CURVE SMOOTH",
"386 194 OFFCURVE",
"385 206 OFFCURVE",
"384 217 CURVE",
"403 219 OFFCURVE",
"421 223 OFFCURVE",
"437 231 CURVE SMOOTH",
"469 246 OFFCURVE",
"460 287 OFFCURVE",
"437 304 CURVE SMOOTH"
);
}
);
width = 508;
}
);
unicode = 0034;
},
{
glyphname = five;
lastChange = "2013-04-17 12:24:55 +0000";
layers = (
{
layerId = "A6F8BADE-1492-427D-9C9D-3E9580E82F52";
name = Regular;
paths = (
{
closed = 1;
nodes = (
"560 536 OFFCURVE",
"463 514 OFFCURVE",
"393 509 CURVE SMOOTH",
"349 506 OFFCURVE",
"304 502 OFFCURVE",
"260 499 CURVE SMOOTH",
"238 497 OFFCURVE",
"212 493 OFFCURVE",
"187 492 CURVE",
"184 497 OFFCURVE",
"180 502 OFFCURVE",
"177 507 CURVE SMOOTH",
"161 529 OFFCURVE",
"123 520 OFFCURVE",
"123 494 CURVE",
"122 492 OFFCURVE",
"121 490 OFFCURVE",
"120 488 CURVE SMOOTH",
"103 450 OFFCURVE",
"119 428 OFFCURVE",
"147 415 CURVE",
"156 388 OFFCURVE",
"165 362 OFFCURVE",
"175 335 CURVE SMOOTH",
"185 305 OFFCURVE",
"194 272 OFFCURVE",
"218 254 CURVE",
"225 244 OFFCURVE",
"237 238 OFFCURVE",
"250 243 CURVE SMOOTH",
"251 243 OFFCURVE",
"251 243 OFFCURVE",
"252 243 CURVE",
"258 243 OFFCURVE",
"265 246 OFFCURVE",
"270 250 CURVE",
"318 265 OFFCURVE",
"369 266 OFFCURVE",
"419 261 CURVE SMOOTH",
"456 258 OFFCURVE",
"537 240 OFFCURVE",
"507 186 CURVE SMOOTH",
"494 161 OFFCURVE",
"458 146 OFFCURVE",
"434 134 CURVE SMOOTH",
"399 115 OFFCURVE",
"359 104 OFFCURVE",
"320 100 CURVE SMOOTH",
"280 96 OFFCURVE",
"242 105 OFFCURVE",
"204 116 CURVE SMOOTH",
"164 129 OFFCURVE",
"153 154 OFFCURVE",
"144 192 CURVE SMOOTH",
"136 227 OFFCURVE",
"81 236 OFFCURVE",
"65 202 CURVE SMOOTH",
"3 75 OFFCURVE",
"149 4 OFFCURVE",
"254 -8 CURVE SMOOTH",
"367 -21 OFFCURVE",
"523 22 OFFCURVE",
"590 122 CURVE SMOOTH",
"652 215 OFFCURVE",
"594 313 OFFCURVE",
"497 343 CURVE SMOOTH",
"430 365 OFFCURVE",
"344 360 OFFCURVE",
"276 329 CURVE",
"270 344 OFFCURVE",
"263 357 OFFCURVE",
"257 370 CURVE SMOOTH",
"252 379 OFFCURVE",
"247 388 OFFCURVE",
"243 397 CURVE",
"257 396 OFFCURVE",
"269 396 OFFCURVE",
"279 396 CURVE SMOOTH",
"336 394 OFFCURVE",
"393 397 OFFCURVE",
"450 398 CURVE SMOOTH",
"506 399 OFFCURVE",
"574 393 OFFCURVE",
"621 427 CURVE SMOOTH",
"646 444 OFFCURVE",
"646 476 OFFCURVE",
"621 493 CURVE SMOOTH"
);
}
);
width = 690;
}
);
unicode = 0035;
},
{
glyphname = six;
lastChange = "2013-04-17 12:24:55 +0000";
layers = (
{
layerId = "A6F8BADE-1492-427D-9C9D-3E9580E82F52";
name = Regular;
paths = (
{
closed = 1;
nodes = (
"278 336 OFFCURVE",
"175 292 OFFCURVE",
"157 215 CURVE",
"156 217 OFFCURVE",
"156 219 OFFCURVE",
"155 220 CURVE SMOOTH",
"139 272 OFFCURVE",
"176 329 OFFCURVE",
"202 370 CURVE SMOOTH",
"267 471 OFFCURVE",
"421 522 OFFCURVE",
"532 472 CURVE SMOOTH",
"563 459 OFFCURVE",
"581 504 OFFCURVE",
"550 515 CURVE SMOOTH",
"373 578 OFFCURVE",
"203 534 OFFCURVE",
"97 376 CURVE SMOOTH",
"50 306 OFFCURVE",
"32 215 OFFCURVE",
"73 138 CURVE SMOOTH",
"116 60 OFFCURVE",
"228 32 OFFCURVE",
"309 21 CURVE SMOOTH",
"401 9 OFFCURVE",
"501 39 OFFCURVE",
"577 90 CURVE SMOOTH",
"649 138 OFFCURVE",
"694 241 OFFCURVE",
"625 313 CURVE SMOOTH",
"555 387 OFFCURVE",
"436 381 OFFCURVE",
"346 356 CURVE SMOOTH"
);
},
{
closed = 1;
nodes = (
"389 133 OFFCURVE",
"332 129 OFFCURVE",
"276 140 CURVE SMOOTH",
"263 142 OFFCURVE",
"249 146 OFFCURVE",
"235 151 CURVE",
"301 224 OFFCURVE",
"433 292 OFFCURVE",
"531 241 CURVE SMOOTH",
"583 214 OFFCURVE",
"458 158 OFFCURVE",
"443 153 CURVE SMOOTH"
);
}
);
width = 709;
}
);
unicode = 0036;
},
{
glyphname = seven;
lastChange = "2013-04-17 12:24:55 +0000";
layers = (
{
layerId = "A6F8BADE-1492-427D-9C9D-3E9580E82F52";
name = Regular;
paths = (
{
closed = 1;
nodes = (
"432 442 OFFCURVE",
"434 442 OFFCURVE",
"436 442 CURVE",
"399 401 OFFCURVE",
"368 356 OFFCURVE",
"340 304 CURVE SMOOTH",
"301 235 OFFCURVE",
"249 119 OFFCURVE",
"307 49 CURVE SMOOTH",
"326 27 OFFCURVE",
"367 33 OFFCURVE",
"380 59 CURVE SMOOTH",
"397 91 OFFCURVE",
"400 130 OFFCURVE",
"407 166 CURVE SMOOTH",
"414 206 OFFCURVE",
"430 244 OFFCURVE",
"448 281 CURVE SMOOTH",
"465 317 OFFCURVE",
"482 352 OFFCURVE",
"501 387 CURVE SMOOTH",
"513 410 OFFCURVE",
"529 432 OFFCURVE",
"541 455 CURVE",
"549 458 OFFCURVE",
"556 461 OFFCURVE",
"563 466 CURVE SMOOTH",
"585 479 OFFCURVE",
"590 518 OFFCURVE",
"563 529 CURVE SMOOTH",
"499 557 OFFCURVE",
"425 542 OFFCURVE",
"357 539 CURVE SMOOTH",
"314 537 OFFCURVE",
"271 538 OFFCURVE",
"228 539 CURVE SMOOTH",
"215 539 OFFCURVE",
"109 537 OFFCURVE",
"105 545 CURVE SMOOTH",
"90 574 OFFCURVE",
"40 553 OFFCURVE",
"52 522 CURVE SMOOTH",
"79 455 OFFCURVE",
"204 458 OFFCURVE",
"265 452 CURVE SMOOTH",
"320 446 OFFCURVE",
"374 441 OFFCURVE",
"430 442 CURVE SMOOTH"
);
}
);
width = 631;
}
);
unicode = 0037;
},
{
glyphname = eight;
lastChange = "2013-04-17 12:24:55 +0000";
layers = (
{
layerId = "A6F8BADE-1492-427D-9C9D-3E9580E82F52";
name = Regular;
paths = (
{
closed = 1;
nodes = (
"559 296 OFFCURVE",
"513 312 OFFCURVE",
"465 320 CURVE",
"496 344 OFFCURVE",
"522 374 OFFCURVE",
"538 410 CURVE SMOOTH",
"565 468 OFFCURVE",
"527 522 OFFCURVE",
"480 554 CURVE SMOOTH",
"447 577 OFFCURVE",
"405 580 OFFCURVE",
"363 576 CURVE",
"277 595 OFFCURVE",
"183 577 OFFCURVE",
"118 512 CURVE SMOOTH",
"78 472 OFFCURVE",
"50 409 OFFCURVE",
"79 354 CURVE SMOOTH",
"104 308 OFFCURVE",
"148 282 OFFCURVE",
"197 269 CURVE",
"163 252 OFFCURVE",
"133 232 OFFCURVE",
"107 209 CURVE SMOOTH",
"49 157 OFFCURVE",
"34 86 OFFCURVE",
"68 16 CURVE SMOOTH",
"98 -48 OFFCURVE",
"177 -67 OFFCURVE",
"241 -73 CURVE SMOOTH",
"371 -86 OFFCURVE",
"560 -44 OFFCURVE",
"627 79 CURVE SMOOTH",
"663 143 OFFCURVE",
"644 214 OFFCURVE",
"594 262 CURVE SMOOTH"
);
},
{
closed = 1;
nodes = (
"230 491 OFFCURVE",
"247 500 OFFCURVE",
"266 507 CURVE",
"273 497 OFFCURVE",
"283 490 OFFCURVE",
"295 489 CURVE SMOOTH",
"323 487 OFFCURVE",
"351 485 OFFCURVE",
"379 479 CURVE SMOOTH",
"406 474 OFFCURVE",
"449 464 OFFCURVE",
"424 434 CURVE SMOOTH",
"381 382 OFFCURVE",
"301 358 OFFCURVE",
"237 369 CURVE SMOOTH",
"215 373 OFFCURVE",
"192 379 OFFCURVE",
"174 394 CURVE SMOOTH",
"147 419 OFFCURVE",
"198 468 OFFCURVE",
"216 481 CURVE SMOOTH"
);
},
{
closed = 1;
nodes = (
"479 60 OFFCURVE",
"351 52 OFFCURVE",
"285 47 CURVE SMOOTH",
"247 44 OFFCURVE",
"209 45 OFFCURVE",
"176 65 CURVE SMOOTH",
"132 90 OFFCURVE",
"197 149 OFFCURVE",
"218 165 CURVE SMOOTH",
"264 198 OFFCURVE",
"334 227 OFFCURVE",
"398 233 CURVE",
"461 215 OFFCURVE",
"548 182 OFFCURVE",
"517 127 CURVE SMOOTH"
);
}
);
width = 696;
}
);
unicode = 0038;
},
{
glyphname = nine;
lastChange = "2013-04-17 12:24:55 +0000";
layers = (
{
layerId = "A6F8BADE-1492-427D-9C9D-3E9580E82F52";
name = Regular;
paths = (
{
closed = 1;
nodes = (
"191 -60 OFFCURVE",
"399 -57 OFFCURVE",
"490 69 CURVE SMOOTH",
"536 133 OFFCURVE",
"540 231 OFFCURVE",
"536 307 CURVE SMOOTH",
"532 371 OFFCURVE",
"512 431 OFFCURVE",
"485 488 CURVE",
"500 501 OFFCURVE",
"501 529 OFFCURVE",
"476 534 CURVE SMOOTH",
"471 534 OFFCURVE",
"466 535 OFFCURVE",
"461 536 CURVE",
"460 538 OFFCURVE",
"459 540 OFFCURVE",
"458 542 CURVE SMOOTH",
"444 568 OFFCURVE",
"413 561 OFFCURVE",
"401 541 CURVE",
"259 545 OFFCURVE",
"56 502 OFFCURVE",
"100 334 CURVE SMOOTH",
"123 248 OFFCURVE",
"219 228 OFFCURVE",
"294 229 CURVE SMOOTH",
"345 231 OFFCURVE",
"396 248 OFFCURVE",
"435 279 CURVE",
"435 236 OFFCURVE",
"428 194 OFFCURVE",
"409 152 CURVE SMOOTH",
"356 35 OFFCURVE",
"184 101 OFFCURVE",
"89 97 CURVE SMOOTH",
"48 96 OFFCURVE",
"36 45 OFFCURVE",
"69 23 CURVE SMOOTH"
);
},
{
closed = 1;
nodes = (
"286 319 OFFCURVE",
"227 318 OFFCURVE",
"191 352 CURVE SMOOTH",
"144 398 OFFCURVE",
"234 444 OFFCURVE",
"264 459 CURVE SMOOTH",
"307 480 OFFCURVE",
"355 489 OFFCURVE",
"403 488 CURVE",
"409 459 OFFCURVE",
"416 431 OFFCURVE",
"421 402 CURVE",
"396 373 OFFCURVE",
"370 349 OFFCURVE",
"331 335 CURVE SMOOTH"
);
}
);
width = 587;
}
);
unicode = 0039;
},
{
glyphname = colon;
lastChange = "2013-04-16 23:56:00 +0000";
layers = (
{
layerId = "A6F8BADE-1492-427D-9C9D-3E9580E82F52";
name = Regular;
paths = (
{
closed = 1;
nodes = (
"474.746 462.793 OFFCURVE",
"472.051 463.164 OFFCURVE",
"469.785 463.486 CURVE",
"468.838 463.74 OFFCURVE",
"467.9 464.004 OFFCURVE",
"466.943 464.238 CURVE SMOOTH",
"465.352 464.639 OFFCURVE",
"463.73 464.99 OFFCURVE",
"462.119 465.293 CURVE SMOOTH",
"439.922 469.512 OFFCURVE",
"417.871 462.832 OFFCURVE",
"405.918 442.422 CURVE SMOOTH",
"394.853 423.535 OFFCURVE",
"397.52 397.402 OFFCURVE",
"413.701 382.119 CURVE SMOOTH",
"414.121 381.719 OFFCURVE",
"414.482 381.25 OFFCURVE",
"414.893 380.84 CURVE",
"415.205 380.283 OFFCURVE",
"415.508 379.717 OFFCURVE",
"415.84 379.18 CURVE",
"410.986 360.01 OFFCURVE",
"411.103 338.086 OFFCURVE",
"421.65 320.586 CURVE SMOOTH",
"433.115 301.533 OFFCURVE",
"453.75 288.672 OFFCURVE",
"476.611 294.961 CURVE SMOOTH",
"495.508 300.156 OFFCURVE",
"511.084 314.873 OFFCURVE",
"522.559 329.805 CURVE SMOOTH",
"548.31 363.301 OFFCURVE",
"548.965 408.174 OFFCURVE",
"518.477 438.848 CURVE SMOOTH",
"508.076 449.316 OFFCURVE",
"492.549 458.73 OFFCURVE",
"478.223 462.295 CURVE"
);
},
{
closed = 1;
nodes = (
"518.037 100.205 OFFCURVE",
"503.086 114.854 OFFCURVE",
"480.635 114.854 CURVE SMOOTH",
"458.184 114.854 OFFCURVE",
"443.232 100.205 OFFCURVE",
"435.547 80.5273 CURVE SMOOTH",
"432.842 73.5938 OFFCURVE",
"431.309 67.373 OFFCURVE",
"430.215 60.0195 CURVE SMOOTH",
"428.516 48.6035 OFFCURVE",
"424.775 35.3711 OFFCURVE",
"426.055 24.1406 CURVE SMOOTH",
"427.764 9.08203 OFFCURVE",
"430.918 -3 OFFCURVE",
"442.041 -14 CURVE SMOOTH",
"452.227 -25 OFFCURVE",
"466.221 -30 OFFCURVE",
"480.635 -30 CURVE SMOOTH",
"495.049 -30 OFFCURVE",
"509.043 -25 OFFCURVE",
"519.229 -14 CURVE SMOOTH",
"530.352 -3 OFFCURVE",
"533.506 9.08203 OFFCURVE",
"535.215 24.1406 CURVE SMOOTH",
"536.387 34.4922 OFFCURVE",
"533.125 46.0449 OFFCURVE",
"531.572 56.5039 CURVE SMOOTH",
"530.312 65.0293 OFFCURVE",
"528.867 72.4707 OFFCURVE",
"525.723 80.5273 CURVE SMOOTH"
);
}
);
width = 1000;
}
);
unicode = 003A;
},
{
glyphname = comma;
lastChange = "2013-04-16 23:54:01 +0000";
layers = (
{
layerId = "A6F8BADE-1492-427D-9C9D-3E9580E82F52";
name = Regular;
paths = (
{
closed = 1;
nodes = (
"400.01 -86 OFFCURVE",
"421.621 -128 OFFCURVE",
"452.5 -124 CURVE SMOOTH",
"564.717 -111 OFFCURVE",
"645.967 9.15039 OFFCURVE",
"594.668 115.684 CURVE SMOOTH",
"571.968 162.822 OFFCURVE",
"494.834 129.482 OFFCURVE",
"510.703 80.293 CURVE SMOOTH",
"529.038 23.457 OFFCURVE",
"442.998 -23 OFFCURVE",
"416.611 -62 CURVE SMOOTH"
);
}
);
width = 1000;
}
);
unicode = 002C;
},
{
glyphname = exclam;
lastChange = "2013-04-16 23:53:27 +0000";
layers = (
{
layerId = "A6F8BADE-1492-427D-9C9D-3E9580E82F52";
name = Regular;
paths = (
{
closed = 1;
nodes = (
"444.36 384.932 OFFCURVE",
"441.494 324.316 OFFCURVE",
"449.375 265 CURVE SMOOTH",
"456.099 214.395 OFFCURVE",
"528.433 195.645 OFFCURVE",
"543.906 252.207 CURVE SMOOTH",
"562.524 320.254 OFFCURVE",
"548.213 393.613 OFFCURVE",
"541.26 462.783 CURVE SMOOTH",
"534.614 528.867 OFFCURVE",
"529.702 598.74 OFFCURVE",
"499.609 658.769 CURVE SMOOTH",
"480.327 697.236 OFFCURVE",
"420.947 670.039 OFFCURVE",
"431.641 630.117 CURVE SMOOTH",
"447.397 571.309 OFFCURVE",
"440.571 505.234 OFFCURVE",
"442.476 444.717 CURVE SMOOTH"
);
},
{
closed = 1;
nodes = (
"544 -9 OFFCURVE",
"550 28 OFFCURVE",
"544.981 47.9297 CURVE",
"559.243 71.709 OFFCURVE",
"546.035 102.744 OFFCURVE",
"519.058 111.924 CURVE SMOOTH",
"497.896 119.131 OFFCURVE",
"476.387 108.877 OFFCURVE",
"461.314 94.3359 CURVE SMOOTH",
"456.538 89.7266 OFFCURVE",
"452.705 84.5313 OFFCURVE",
"449.185 79.1211 CURVE",
"443.994 74.707 OFFCURVE",
"439.375 69.6094 OFFCURVE",
"435.552 64.1797 CURVE SMOOTH",
"428.882 54.6875 OFFCURVE",
"427.256 43.3203 OFFCURVE",
"426.597 32.0996 CURVE",
"427 33 OFFCURVE",
"426 28 OFFCURVE",
"426.372 27.5391 CURVE",
"426.211 17.4609 OFFCURVE",
"428.584 7.27539 OFFCURVE",
"434.146 -2 CURVE SMOOTH",
"451.118 -31 OFFCURVE",
"486.04 -38 OFFCURVE",
"514.727 -23 CURVE SMOOTH"
);
}
);
width = 1000;
}
);
unicode = 0021;
},
{
glyphname = numbersign;
lastChange = "2013-04-16 23:58:30 +0000";
layers = (
{
layerId = "A6F8BADE-1492-427D-9C9D-3E9580E82F52";
name = Regular;
paths = (
{
closed = 1;
nodes = (
"839.009 392.715 OFFCURVE",
"779.746 393.506 OFFCURVE",
"723.804 397.158 CURVE SMOOTH",
"707.51 398.223 OFFCURVE",
"691.196 398.955 OFFCURVE",
"674.893 399.853 CURVE",
"675.938 406.357 OFFCURVE",
"677.075 412.861 OFFCURVE",
"678.023 419.385 CURVE SMOOTH",
"682.91 453.047 OFFCURVE",
"696.367 496.953 OFFCURVE",
"684.517 530.088 CURVE SMOOTH",
"674.409 558.35 OFFCURVE",
"638.071 551.494 OFFCURVE",
"634.565 523.33 CURVE SMOOTH",
"633.359 513.643 OFFCURVE",
"625.098 504.541 OFFCURVE",
"622.051 495.283 CURVE SMOOTH",
"613.935 470.635 OFFCURVE",
"607.256 445.586 OFFCURVE",
"600.044 420.654 CURVE SMOOTH",
"598.413 415.02 OFFCURVE",
"596.894 409.307 OFFCURVE",
"595.278 403.652 CURVE",
"573.042 404.541 OFFCURVE",
"550.81 405.469 OFFCURVE",
"528.565 406.094 CURVE SMOOTH",
"501.465 406.855 OFFCURVE",
"474.331 406.728 OFFCURVE",
"447.197 406.387 CURVE",
"456.47 444.033 OFFCURVE",
"460.059 495.967 OFFCURVE",
"483.135 526.465 CURVE SMOOTH",
"502.891 552.568 OFFCURVE",
"462.705 576.602 OFFCURVE",
"441.045 558.935 CURVE SMOOTH",
"414.619 537.383 OFFCURVE",
"403.911 503.037 OFFCURVE",
"391.401 472.393 CURVE SMOOTH",
"382.378 450.293 OFFCURVE",
"374.248 427.891 OFFCURVE",
"366.465 405.361 CURVE",
"364.307 405.352 OFFCURVE",
"362.148 405.303 OFFCURVE",
"359.995 405.293 CURVE SMOOTH",
"329.404 405.166 OFFCURVE",
"298.853 405.469 OFFCURVE",
"268.33 403.281 CURVE SMOOTH",
"249.722 401.953 OFFCURVE",
"228.389 395.674 OFFCURVE",
"209.995 398.057 CURVE SMOOTH",
"173.057 402.842 OFFCURVE",
"166.46 350.322 OFFCURVE",
"192.466 333.34 CURVE SMOOTH",
"228.037 310.127 OFFCURVE",
"282.769 314.961 OFFCURVE",
"323.33 313.125 CURVE SMOOTH",
"327.559 312.93 OFFCURVE",
"331.797 312.773 OFFCURVE",
"336.025 312.588 CURVE",
"327.368 284.863 OFFCURVE",
"320.312 256.67 OFFCURVE",
"314.062 228.281 CURVE",
"260.601 225.723 OFFCURVE",
"207.236 220.762 OFFCURVE",
"152.651 213.291 CURVE SMOOTH",
"126.167 209.668 OFFCURVE",
"126.167 163.652 OFFCURVE",
"152.651 160.029 CURVE SMOOTH",
"200.576 153.467 OFFCURVE",
"248.833 149.15 OFFCURVE",
"297.168 145.312 CURVE",
"287.49 98.2324 OFFCURVE",
"267.954 39.3848 OFFCURVE",
"286.245 -6 CURVE SMOOTH",
"295.278 -28 OFFCURVE",
"325.508 -43 OFFCURVE",
"344.746 -21 CURVE SMOOTH",
"376.314 14.2773 OFFCURVE",
"377.3 60.0684 OFFCURVE",
"384.102 105.791 CURVE SMOOTH",
"385.713 116.611 OFFCURVE",
"387.598 127.383 OFFCURVE",
"389.321 138.174 CURVE",
"414.106 136.201 OFFCURVE",
"438.872 134.092 OFFCURVE",
"463.584 131.602 CURVE SMOOTH",
"484.048 129.531 OFFCURVE",
"504.512 127.568 OFFCURVE",
"524.976 125.586 CURVE",
"524.224 122.334 OFFCURVE",
"523.438 119.102 OFFCURVE",
"522.69 115.85 CURVE SMOOTH",
"513.267 74.9707 OFFCURVE",
"495.278 27.0215 OFFCURVE",
"522.373 -9 CURVE SMOOTH",
"532.529 -23 OFFCURVE",
"550.117 -31 OFFCURVE",
"566.143 -21 CURVE SMOOTH",
"606.055 3.7793 OFFCURVE",
"607.271 47.0313 OFFCURVE",
"615.264 90.332 CURVE SMOOTH",
"616.816 98.7402 OFFCURVE",
"618.501 107.129 OFFCURVE",
"620.088 115.537 CURVE",
"623.301 115.146 OFFCURVE",
"626.523 114.824 OFFCURVE",
"629.736 114.424 CURVE SMOOTH",
"679.009 108.359 OFFCURVE",
"736.631 91.6602 OFFCURVE",
"784.526 109.385 CURVE SMOOTH",
"818.921 122.109 OFFCURVE",
"826.46 165.43 OFFCURVE",
"794.585 186.348 CURVE SMOOTH",
"752.319 214.102 OFFCURVE",
"697.036 213.477 OFFCURVE",
"648.198 218.916 CURVE SMOOTH",
"645.586 219.209 OFFCURVE",
"642.949 219.355 OFFCURVE",
"640.332 219.619 CURVE",
"643.34 234.717 OFFCURVE",
"646.328 249.805 OFFCURVE",
"649.341 264.893 CURVE SMOOTH",
"651.372 275.078 OFFCURVE",
"653.433 285.273 OFFCURVE",
"655.488 295.459 CURVE",
"671.758 294.287 OFFCURVE",
"688.018 293.047 OFFCURVE",
"704.282 291.709 CURVE SMOOTH",
"766.733 286.572 OFFCURVE",
"829.277 276.182 OFFCURVE",
"891.26 289.121 CURVE SMOOTH",
"937.065 298.682 OFFCURVE",
"925.815 356.406 OFFCURVE",
"891.26 370.859 CURVE SMOOTH"
);
},
{
closed = 1;
nodes = (
"555.727 254.756 OFFCURVE",
"552.251 240.244 OFFCURVE",
"548.74 225.732 CURVE",
"526.484 226.66 OFFCURVE",
"504.224 227.461 OFFCURVE",
"482.046 228.447 CURVE SMOOTH",
"456.133 229.6 OFFCURVE",
"430.561 230.166 OFFCURVE",
"405.156 230.254 CURVE",
"406.934 239.902 OFFCURVE",
"408.589 249.57 OFFCURVE",
"410.425 259.219 CURVE SMOOTH",
"413.584 275.859 OFFCURVE",
"417.432 292.402 OFFCURVE",
"421.494 308.916 CURVE",
"450.689 307.656 OFFCURVE",
"479.883 306.318 OFFCURVE",
"509.043 304.639 CURVE SMOOTH",
"528.545 303.516 OFFCURVE",
"548.037 302.373 OFFCURVE",
"567.529 301.191 CURVE",
"564.795 290.547 OFFCURVE",
"561.894 279.912 OFFCURVE",
"559.282 269.258 CURVE SMOOTH"
);
}
);
width = 1000;
}
);
unicode = 0023;
},
{
glyphname = period;
lastChange = "2013-04-16 23:53:50 +0000";
layers = (
{
layerId = "A6F8BADE-1492-427D-9C9D-3E9580E82F52";
name = Regular;
paths = (
{
closed = 1;
nodes = (
"570.615 74.0039 OFFCURVE",
"561.274 92.5 OFFCURVE",
"546.631 104.375 CURVE",
"527.71 129.854 OFFCURVE",
"487.29 129.854 OFFCURVE",
"468.369 104.375 CURVE",
"453.726 92.5 OFFCURVE",
"444.385 74.0039 OFFCURVE",
"444.385 55 CURVE SMOOTH",
"444.385 20.5957 OFFCURVE",
"473.096 -8 OFFCURVE",
"507.5 -8 CURVE SMOOTH",
"541.904 -8 OFFCURVE",
"570.615 20.5957 OFFCURVE",
"570.615 55 CURVE SMOOTH"
);
}
);
width = 1000;
}
);
unicode = 002E;
},
{
glyphname = question;
lastChange = "2013-04-16 23:55:48 +0000";
layers = (
{
layerId = "A6F8BADE-1492-427D-9C9D-3E9580E82F52";
name = Regular;
paths = (
{
closed = 1;
nodes = (
"409.277 590.42 OFFCURVE",
"282.461 568.984 OFFCURVE",
"269.727 508.281 CURVE SMOOTH",
"265.81 489.59 OFFCURVE",
"282.754 465.459 OFFCURVE",
"304.131 473.877 CURVE SMOOTH",
"391.397 508.272 OFFCURVE",
"497.637 534.326 OFFCURVE",
"590.107 507.803 CURVE SMOOTH",
"615.684 500.469 OFFCURVE",
"634.854 479.736 OFFCURVE",
"642.852 454.834 CURVE SMOOTH",
"654.141 419.736 OFFCURVE",
"609.307 393.398 OFFCURVE",
"585.732 380.029 CURVE SMOOTH",
"530.293 348.574 OFFCURVE",
"464.307 340.02 OFFCURVE",
"403.74 322.949 CURVE",
"396.348 321.152 OFFCURVE",
"389.141 317.705 OFFCURVE",
"382.764 312.236 CURVE",
"381.826 311.514 OFFCURVE",
"380.967 310.703 OFFCURVE",
"380.195 309.805 CURVE",
"365.986 294.873 OFFCURVE",
"363.477 276.836 OFFCURVE",
"368.555 261.318 CURVE",
"365.137 212.031 OFFCURVE",
"354.287 158.311 OFFCURVE",
"384.629 116.396 CURVE SMOOTH",
"406.914 85.6055 OFFCURVE",
"459.56 85 OFFCURVE",
"470.088 127.568 CURVE SMOOTH",
"478.877 163.105 OFFCURVE",
"470.84 199.385 OFFCURVE",
"465.127 235.654 CURVE",
"541.856 252.949 OFFCURVE",
"629.307 277.461 OFFCURVE",
"683.574 331.426 CURVE SMOOTH",
"748.31 395.801 OFFCURVE",
"750 481.475 OFFCURVE",
"690.098 549.238 CURVE SMOOTH",
"633.945 612.754 OFFCURVE",
"531.875 607.744 OFFCURVE",
"456.494 597.09 CURVE SMOOTH"
);
},
{
closed = 1;
nodes = (
"474.111 8.58398 OFFCURVE",
"453.262 8.13477 OFFCURVE",
"434.522 -2 CURVE SMOOTH",
"413.174 -14 OFFCURVE",
"392.832 -26 OFFCURVE",
"384.453 -51 CURVE SMOOTH",
"371.836 -87 OFFCURVE",
"408.154 -124 OFFCURVE",
"444.228 -121 CURVE SMOOTH",
"459.111 -120 OFFCURVE",
"471.953 -116 OFFCURVE",
"485.059 -109 CURVE SMOOTH",
"501.523 -100 OFFCURVE",
"509.844 -86 OFFCURVE",
"516.816 -69 CURVE SMOOTH",
"518.506 -65 OFFCURVE",
"519.092 -61 OFFCURVE",
"519.17 -57 CURVE",
"526.719 -51 OFFCURVE",
"531.641 -42 OFFCURVE",
"531.641 -30 CURVE SMOOTH",
"531.641 -9 OFFCURVE",
"514.883 4.78516 OFFCURVE",
"495 6.64063 CURVE SMOOTH"
);
}
);
width = 1000;
}
);
unicode = 003F;
},
{
glyphname = quotedbl;
lastChange = "2013-04-16 23:56:52 +0000";
layers = (
{
layerId = "A6F8BADE-1492-427D-9C9D-3E9580E82F52";
name = Regular;
paths = (
{
closed = 1;
nodes = (
"422.017 586.152 OFFCURVE",
"404.321 591.777 OFFCURVE",
"386.284 585.606 CURVE",
"368.198 577.92 OFFCURVE",
"359.663 562.754 OFFCURVE",
"360.537 547.93 CURVE",
"354.443 510.938 OFFCURVE",
"354.653 473.779 OFFCURVE",
"356.206 436.27 CURVE SMOOTH",
"358.066 391.221 OFFCURVE",
"359.976 325 OFFCURVE",
"406.948 303.887 CURVE SMOOTH",
"435.767 290.938 OFFCURVE",
"462.495 301.807 OFFCURVE",
"474.028 331.182 CURVE SMOOTH",
"488.325 367.598 OFFCURVE",
"465.366 412.822 OFFCURVE",
"459.971 450.312 CURVE SMOOTH",
"454.453 488.643 OFFCURVE",
"455.581 536.777 OFFCURVE",
"433.345 569.482 CURVE SMOOTH"
);
},
{
closed = 1;
nodes = (
"586.265 621.865 OFFCURVE",
"537.617 602.49 OFFCURVE",
"544.663 560.254 CURVE SMOOTH",
"548.232 538.867 OFFCURVE",
"540.649 513.613 OFFCURVE",
"541.128 491.777 CURVE SMOOTH",
"541.729 464.551 OFFCURVE",
"543.257 437.197 OFFCURVE",
"544.487 409.99 CURVE SMOOTH",
"546.597 363.359 OFFCURVE",
"544.81 302.617 OFFCURVE",
"594.033 281.27 CURVE SMOOTH",
"626.543 267.168 OFFCURVE",
"658.12 283.857 OFFCURVE",
"661.509 319.99 CURVE SMOOTH",
"665.464 362.207 OFFCURVE",
"650.801 414.688 OFFCURVE",
"644.438 457.022 CURVE SMOOTH",
"638.31 497.793 OFFCURVE",
"637.29 554.727 OFFCURVE",
"611.631 588.486 CURVE SMOOTH"
);
}
);
width = 1000;
}
);
unicode = 0022;
},
{
glyphname = hyphen;
lastChange = "2013-04-16 23:58:12 +0000";
layers = (
{
layerId = "A6F8BADE-1492-427D-9C9D-3E9580E82F52";
name = Regular;
paths = (
{
closed = 1;
nodes = (
"611 354 OFFCURVE",
"569 344 OFFCURVE",
"529 342 CURVE SMOOTH",
"483 340 OFFCURVE",
"434 341 OFFCURVE",
"390 327 CURVE",
"390 327 OFFCURVE",
"390 327 OFFCURVE",
"390 326 CURVE",
"362 314 OFFCURVE",
"343 267 OFFCURVE",
"390 253 CURVE SMOOTH",
"434 239 OFFCURVE",
"483 238 OFFCURVE",
"529 236 CURVE SMOOTH",
"574 234 OFFCURVE",
"620 229 OFFCURVE",
"661 251 CURVE SMOOTH",
"701 272 OFFCURVE",
"687 327 OFFCURVE",
"650 341 CURVE SMOOTH"
);
}
);
width = 1000;
}
);
unicode = 002D;
},
{
glyphname = dollar;
lastChange = "2013-04-17 12:23:51 +0000";
layers = (
{
layerId = "A6F8BADE-1492-427D-9C9D-3E9580E82F52";
name = Regular;
paths = (
{
closed = 1;
nodes = (
"517 305 OFFCURVE",
"458 292 OFFCURVE",
"398 278 CURVE",
"392 293 OFFCURVE",
"387 307 OFFCURVE",
"381 322 CURVE SMOOTH",
"365 363 OFFCURVE",
"349 405 OFFCURVE",
"331 447 CURVE",
"346 448 OFFCURVE",
"361 448 OFFCURVE",
"376 448 CURVE SMOOTH",
"391 447 OFFCURVE",
"471 447 OFFCURVE",
"475 425 CURVE SMOOTH",
"481 393 OFFCURVE",
"536 400 OFFCURVE",
"533 433 CURVE SMOOTH",
"528 486 OFFCURVE",
"462 509 OFFCURVE",
"417 516 CURVE SMOOTH",
"377 523 OFFCURVE",
"337 526 OFFCURVE",
"297 523 CURVE",
"277 566 OFFCURVE",
"253 610 OFFCURVE",
"218 642 CURVE SMOOTH",
"190 667 OFFCURVE",
"154 641 OFFCURVE",
"159 607 CURVE SMOOTH",
"165 570 OFFCURVE",
"177 537 OFFCURVE",
"190 503 CURVE",
"70 459 OFFCURVE",
"-5 315 OFFCURVE",
"100 213 CURVE SMOOTH",
"160 155 OFFCURVE",
"234 148 OFFCURVE",
"311 155 CURVE",
"314 142 OFFCURVE",
"318 129 OFFCURVE",
"321 116 CURVE SMOOTH",
"324 100 OFFCURVE",
"327 85 OFFCURVE",
"330 69 CURVE",
"302 63 OFFCURVE",
"274 61 OFFCURVE",
"244 61 CURVE SMOOTH",
"197 62 OFFCURVE",
"172 79 OFFCURVE",
"136 106 CURVE SMOOTH",
"96 137 OFFCURVE",
"56 80 OFFCURVE",
"74 43 CURVE SMOOTH",
"107 -28 OFFCURVE",
"153 -44 OFFCURVE",
"227 -53 CURVE SMOOTH",
"270 -59 OFFCURVE",
"314 -54 OFFCURVE",
"357 -43 CURVE",
"360 -51 OFFCURVE",
"364 -58 OFFCURVE",
"368 -65 CURVE SMOOTH",
"392 -108 OFFCURVE",
"457 -87 OFFCURVE",
"459 -40 CURVE SMOOTH",
"459 -30 OFFCURVE",
"459 -20 OFFCURVE",
"459 -10 CURVE",
"531 19 OFFCURVE",
"593 56 OFFCURVE",
"635 122 CURVE SMOOTH",
"676 189 OFFCURVE",
"638 266 OFFCURVE",
"569 288 CURVE SMOOTH"
);
},
{
closed = 1;
nodes = (
"115 342 OFFCURVE",
"172 393 OFFCURVE",
"221 419 CURVE",
"237 376 OFFCURVE",
"251 333 OFFCURVE",
"267 290 CURVE SMOOTH",
"271 280 OFFCURVE",
"275 269 OFFCURVE",
"279 258 CURVE",
"237 257 OFFCURVE",
"199 266 OFFCURVE",
"166 296 CURVE SMOOTH"
);
},
{
closed = 1;
nodes = (
"467 120 OFFCURVE",
"456 115 OFFCURVE",
"446 110 CURVE",
"442 131 OFFCURVE",
"437 151 OFFCURVE",
"431 172 CURVE",
"464 177 OFFCURVE",
"496 181 OFFCURVE",
"527 180 CURVE SMOOTH",
"559 180 OFFCURVE",
"491 133 OFFCURVE",
"478 126 CURVE SMOOTH"
);
}
);
width = 702;
}
);
unicode = 0024;
},
{
glyphname = equal;
lastChange = "2013-04-17 12:23:51 +0000";
layers = (
{
layerId = "A6F8BADE-1492-427D-9C9D-3E9580E82F52";
name = Regular;
paths = (
{
closed = 1;
nodes = (
"498 433 OFFCURVE",
"408 422 OFFCURVE",
"327 415 CURVE SMOOTH",
"291 412 OFFCURVE",
"257 404 OFFCURVE",
"222 396 CURVE SMOOTH",
"187 388 OFFCURVE",
"155 371 OFFCURVE",
"121 362 CURVE SMOOTH",
"75 350 OFFCURVE",
"83 272 OFFCURVE",
"132 277 CURVE SMOOTH",
"198 283 OFFCURVE",
"261 303 OFFCURVE",
"327 308 CURVE SMOOTH",
"410 313 OFFCURVE",
"495 304 OFFCURVE",
"577 320 CURVE SMOOTH",
"623 329 OFFCURVE",
"614 392 OFFCURVE",
"577 405 CURVE SMOOTH"
);
},
{
closed = 1;
nodes = (
"462 265 OFFCURVE",
"381 249 OFFCURVE",
"304 237 CURVE SMOOTH",
"227 225 OFFCURVE",
"155 200 OFFCURVE",
"79 187 CURVE SMOOTH",
"33 178 OFFCURVE",
"45 107 OFFCURVE",
"90 107 CURVE SMOOTH",
"160 107 OFFCURVE",
"231 118 OFFCURVE",
"300 126 CURVE SMOOTH",
"379 135 OFFCURVE",
"461 132 OFFCURVE",
"539 145 CURVE SMOOTH",
"592 154 OFFCURVE",
"590 240 OFFCURVE",
"539 250 CURVE SMOOTH"
);
}
);
width = 658;
}
);
unicode = 003D;
},
{
glyphname = at;
lastChange = "2013-04-17 12:23:51 +0000";
layers = (
{
layerId = "A6F8BADE-1492-427D-9C9D-3E9580E82F52";
name = Regular;
paths = (
{
closed = 1;
nodes = (
"537 635 OFFCURVE",
"395 662 OFFCURVE",
"285 641 CURVE SMOOTH",
"172 620 OFFCURVE",
"90 552 OFFCURVE",
"61 439 CURVE SMOOTH",
"34 334 OFFCURVE",
"58 222 OFFCURVE",
"106 126 CURVE SMOOTH",
"204 -72 OFFCURVE",
"515 -196 OFFCURVE",
"672 5 CURVE SMOOTH",
"704 46 OFFCURVE",
"665 100 OFFCURVE",
"617 77 CURVE SMOOTH",
"560 49 OFFCURVE",
"494 25 OFFCURVE",
"430 35 CURVE SMOOTH",
"369 45 OFFCURVE",
"310 76 OFFCURVE",
"267 120 CURVE SMOOTH",
"188 199 OFFCURVE",
"145 348 OFFCURVE",
"192 453 CURVE SMOOTH",
"248 580 OFFCURVE",
"455 543 OFFCURVE",
"549 491 CURVE SMOOTH",
"606 460 OFFCURVE",
"635 405 OFFCURVE",
"648 344 CURVE SMOOTH",
"654 316 OFFCURVE",
"657 271 OFFCURVE",
"653 230 CURVE",
"651 232 OFFCURVE",
"650 234 OFFCURVE",
"649 235 CURVE SMOOTH",
"633 259 OFFCURVE",
"616 282 OFFCURVE",
"600 306 CURVE SMOOTH",
"600 306 OFFCURVE",
"600 307 OFFCURVE",
"599 307 CURVE",
"598 323 OFFCURVE",
"589 334 OFFCURVE",
"577 339 CURVE",
"563 357 OFFCURVE",
"548 373 OFFCURVE",
"532 389 CURVE",
"543 402 OFFCURVE",
"545 425 OFFCURVE",
"527 435 CURVE SMOOTH",
"468 466 OFFCURVE",
"409 466 OFFCURVE",
"359 420 CURVE SMOOTH",
"310 377 OFFCURVE",
"300 302 OFFCURVE",
"314 242 CURVE SMOOTH",
"333 161 OFFCURVE",
"405 124 OFFCURVE",
"483 141 CURVE SMOOTH",
"512 147 OFFCURVE",
"537 165 OFFCURVE",
"556 188 CURVE",
"576 152 OFFCURVE",
"600 119 OFFCURVE",
"632 96 CURVE SMOOTH",
"669 69 OFFCURVE",
"731 87 OFFCURVE",
"741 134 CURVE SMOOTH",
"752 188 OFFCURVE",
"762 241 OFFCURVE",
"761 297 CURVE SMOOTH",
"761 405 OFFCURVE",
"714 503 OFFCURVE",
"628 568 CURVE SMOOTH"
);
},
{
closed = 1;
nodes = (
"394 302 OFFCURVE",
"399 331 OFFCURVE",
"409 353 CURVE SMOOTH",
"421 381 OFFCURVE",
"441 391 OFFCURVE",
"465 391 CURVE",
"465 386 OFFCURVE",
"466 381 OFFCURVE",
"469 376 CURVE SMOOTH",
"483 351 OFFCURVE",
"496 322 OFFCURVE",
"508 293 CURVE",
"475 249 OFFCURVE",
"428 202 OFFCURVE",
"402 278 CURVE SMOOTH"
);
}
);
width = 811;
}
);
unicode = 0040;
},
{
glyphname = bar;
lastChange = "2013-04-17 12:23:51 +0000";
layers = (
{
layerId = "A6F8BADE-1492-427D-9C9D-3E9580E82F52";
name = Regular;
paths = (
{
closed = 1;
nodes = (
"138 341 OFFCURVE",
"134 397 OFFCURVE",
"131 453 CURVE SMOOTH",
"129 494 OFFCURVE",
"131 540 OFFCURVE",
"110 576 CURVE SMOOTH",
"96 601 OFFCURVE",
"65 587 OFFCURVE",
"62 563 CURVE SMOOTH",
"50 471 OFFCURVE",
"48 379 OFFCURVE",
"51 286 CURVE SMOOTH",
"53 237 OFFCURVE",
"57 189 OFFCURVE",
"60 141 CURVE SMOOTH",
"63 93 OFFCURVE",
"56 43 OFFCURVE",
"77 -2 CURVE SMOOTH",
"90 -30 OFFCURVE",
"139 -30 OFFCURVE",
"152 -2 CURVE SMOOTH",
"170 40 OFFCURVE",
"163 79 OFFCURVE",
"159 124 CURVE SMOOTH",
"154 178 OFFCURVE",
"147 232 OFFCURVE",
"143 286 CURVE SMOOTH"
);
}
);
width = 214;
}
);
unicode = 007C;
},
